<?xml version="1.0" encoding="UTF-8" standalone="no"?>
<!DOCTYPE svg PUBLIC "-//W3C//DTD SVG 1.1//EN"
 "http://www.w3.org/Graphics/SVG/1.1/DTD/svg11.dtd">
<!-- Generated by graphviz version 2.50.0 (0)
 -->
<!-- Pages: 1 -->
<svg width="2642pt" height="182pt"
 viewBox="0.00 0.00 2641.84 182.21" xmlns="http://www.w3.org/2000/svg" xmlns:xlink="http://www.w3.org/1999/xlink">
<g id="graph0" class="graph" transform="scale(1 1) rotate(0) translate(4 178.21)">
<polygon fill="white" stroke="transparent" points="-4,4 -4,-178.21 2637.84,-178.21 2637.84,4 -4,4"/>
<!-- offx1 -->
<g id="node1" class="node">
<title>offx1</title>
<polygon fill="lightgray" stroke="black" points="869.86,-174.21 833.86,-174.21 833.86,-156.21 869.86,-156.21 869.86,-174.21"/>
<text text-anchor="middle" x="851.86" y="-163.01" font-family="Times New Roman,serif" font-size="9.00">offx1</text>
</g>
<!-- EMove_outputp1 -->
<g id="node10" class="node">
<title>EMove_outputp1</title>
<ellipse fill="lightblue" stroke="black" cx="55.86" cy="-60.1" rx="55.72" ry="55.72"/>
<text text-anchor="middle" x="55.86" y="-57.9" font-family="Times New Roman,serif" font-size="9.00">EMove_outputp1</text>
</g>
<!-- offx1&#45;&gt;EMove_outputp1 -->
<g id="edge19" class="edge">
<title>offx1&#45;&gt;EMove_outputp1</title>
<path fill="none" stroke="green" stroke-width="0.39" stroke-dasharray="1,5" d="M833.56,-163.83C726.93,-161.55 188.37,-148.67 120.86,-120.21 113.75,-117.21 106.9,-113.08 100.5,-108.4"/>
<polygon fill="green" stroke="green" stroke-width="0.39" points="102.67,-105.64 92.65,-102.2 98.33,-111.14 102.67,-105.64"/>
</g>
<!-- SMove_outputp1 -->
<g id="node13" class="node">
<title>SMove_outputp1</title>
<ellipse fill="lightblue" stroke="black" cx="453.86" cy="-60.1" rx="55.72" ry="55.72"/>
<text text-anchor="middle" x="453.86" y="-57.9" font-family="Times New Roman,serif" font-size="9.00">SMove_outputp1</text>
</g>
<!-- offx1&#45;&gt;SMove_outputp1 -->
<g id="edge8" class="edge">
<title>offx1&#45;&gt;SMove_outputp1</title>
<path fill="none" stroke="red" stroke-width="0.32" d="M833.77,-163.24C772.87,-159.76 575.85,-146.67 518.86,-120.21 512.11,-117.07 505.57,-112.98 499.4,-108.42"/>
<polygon fill="red" stroke="red" stroke-width="0.32" points="501.26,-105.42 491.25,-101.95 496.9,-110.91 501.26,-105.42"/>
</g>
<!-- NoMove_outputp2 -->
<g id="node14" class="node">
<title>NoMove_outputp2</title>
<ellipse fill="lightblue" stroke="black" cx="587.86" cy="-60.1" rx="60.21" ry="60.21"/>
<text text-anchor="middle" x="587.86" y="-57.9" font-family="Times New Roman,serif" font-size="9.00">NoMove_outputp2</text>
</g>
<!-- offx1&#45;&gt;NoMove_outputp2 -->
<g id="edge12" class="edge">
<title>offx1&#45;&gt;NoMove_outputp2</title>
<path fill="none" stroke="red" stroke-width="0.26" d="M833.68,-163.03C797.99,-160.1 717.04,-150.41 656.86,-120.21 650.7,-117.12 644.64,-113.36 638.82,-109.26"/>
<polygon fill="red" stroke="red" stroke-width="0.26" points="640.58,-106.21 630.47,-103.03 636.39,-111.82 640.58,-106.21"/>
</g>
<!-- NMove_outputp2 -->
<g id="node16" class="node">
<title>NMove_outputp2</title>
<ellipse fill="lightblue" stroke="black" cx="981.86" cy="-60.1" rx="56.64" ry="56.64"/>
<text text-anchor="middle" x="981.86" y="-57.9" font-family="Times New Roman,serif" font-size="9.00">NMove_outputp2</text>
</g>
<!-- offx1&#45;&gt;NMove_outputp2 -->
<g id="edge42" class="edge">
<title>offx1&#45;&gt;NMove_outputp2</title>
<path fill="none" stroke="red" stroke-width="0.27" stroke-dasharray="1,5" d="M865.2,-155.97C878.62,-147.51 899.72,-133.69 916.86,-120.21 922.26,-115.96 927.77,-111.38 933.18,-106.72"/>
<polygon fill="red" stroke="red" stroke-width="0.27" points="935.81,-109.07 941.02,-99.85 931.19,-103.81 935.81,-109.07"/>
</g>
<!-- SMove_outputp2 -->
<g id="node18" class="node">
<title>SMove_outputp2</title>
<ellipse fill="lightblue" stroke="black" cx="721.86" cy="-60.1" rx="55.72" ry="55.72"/>
<text text-anchor="middle" x="721.86" y="-57.9" font-family="Times New Roman,serif" font-size="9.00">SMove_outputp2</text>
</g>
<!-- offx1&#45;&gt;SMove_outputp2 -->
<g id="edge36" class="edge">
<title>offx1&#45;&gt;SMove_outputp2</title>
<path fill="none" stroke="green" stroke-width="0.82" d="M838.52,-155.97C825.1,-147.51 804,-133.69 786.86,-120.21 781.17,-115.73 775.36,-110.89 769.67,-105.96"/>
<polygon fill="green" stroke="green" stroke-width="0.82" points="771.82,-103.2 762,-99.23 767.2,-108.46 771.82,-103.2"/>
</g>
<!-- EMove_outputp3 -->
<g id="node20" class="node">
<title>EMove_outputp3</title>
<ellipse fill="lightblue" stroke="black" cx="851.86" cy="-60.1" rx="55.72" ry="55.72"/>
<text text-anchor="middle" x="851.86" y="-57.9" font-family="Times New Roman,serif" font-size="9.00">EMove_outputp3</text>
</g>
<!-- offx1&#45;&gt;EMove_outputp3 -->
<g id="edge45" class="edge">
<title>offx1&#45;&gt;EMove_outputp3</title>
<path fill="none" stroke="red" stroke-width="0.41" d="M851.86,-156.12C851.86,-149.15 851.86,-138.35 851.86,-126.51"/>
<polygon fill="red" stroke="red" stroke-width="0.41" points="855.36,-126.37 851.86,-116.37 848.36,-126.37 855.36,-126.37"/>
</g>
<!-- SMove_outputp3 -->
<g id="node23" class="node">
<title>SMove_outputp3</title>
<ellipse fill="lightblue" stroke="black" cx="2178.86" cy="-60.1" rx="55.72" ry="55.72"/>
<text text-anchor="middle" x="2178.86" y="-57.9" font-family="Times New Roman,serif" font-size="9.00">SMove_outputp3</text>
</g>
<!-- offx1&#45;&gt;SMove_outputp3 -->
<g id="edge23" class="edge">
<title>offx1&#45;&gt;SMove_outputp3</title>
<path fill="none" stroke="red" stroke-width="0.36" d="M869.94,-163.35C902.65,-161.81 973.81,-158.53 1033.86,-156.21 1153.95,-151.57 2003.68,-165.84 2114.86,-120.21 2121.69,-117.4 2128.24,-113.52 2134.38,-109.07"/>
<polygon fill="red" stroke="red" stroke-width="0.36" points="2136.77,-111.64 2142.46,-102.7 2132.44,-106.14 2136.77,-111.64"/>
</g>
<!-- NoMove_outputp4 -->
<g id="node24" class="node">
<title>NoMove_outputp4</title>
<ellipse fill="lightblue" stroke="black" cx="1250.86" cy="-60.1" rx="60.21" ry="60.21"/>
<text text-anchor="middle" x="1250.86" y="-57.9" font-family="Times New Roman,serif" font-size="9.00">NoMove_outputp4</text>
</g>
<!-- offx1&#45;&gt;NoMove_outputp4 -->
<g id="edge21" class="edge">
<title>offx1&#45;&gt;NoMove_outputp4</title>
<path fill="none" stroke="red" stroke-width="0.14" stroke-dasharray="1,5" d="M870.18,-163.14C930.93,-159.37 1125.14,-145.57 1181.86,-120.21 1188.4,-117.29 1194.78,-113.54 1200.86,-109.36"/>
<polygon fill="red" stroke="red" stroke-width="0.14" points="1202.97,-112.16 1208.96,-103.43 1198.83,-106.52 1202.97,-112.16"/>
</g>
<!-- NMove_outputp4 -->
<g id="node26" class="node">
<title>NMove_outputp4</title>
<ellipse fill="lightblue" stroke="black" cx="1523.86" cy="-60.1" rx="56.64" ry="56.64"/>
<text text-anchor="middle" x="1523.86" y="-57.9" font-family="Times New Roman,serif" font-size="9.00">NMove_outputp4</text>
</g>
<!-- offx1&#45;&gt;NMove_outputp4 -->
<g id="edge66" class="edge">
<title>offx1&#45;&gt;NMove_outputp4</title>
<path fill="none" stroke="green" stroke-width="0.23" d="M870.05,-163.22C968.1,-157.85 1430.1,-131.99 1457.86,-120.21 1464.77,-117.27 1471.45,-113.31 1477.73,-108.82"/>
<polygon fill="green" stroke="green" stroke-width="0.23" points="1480.25,-111.29 1486.02,-102.41 1475.97,-105.75 1480.25,-111.29"/>
</g>
<!-- offy1 -->
<g id="node2" class="node">
<title>offy1</title>
<polygon fill="lightgray" stroke="black" points="1132.86,-174.21 1096.86,-174.21 1096.86,-156.21 1132.86,-156.21 1132.86,-174.21"/>
<text text-anchor="middle" x="1114.86" y="-163.01" font-family="Times New Roman,serif" font-size="9.00">offy1</text>
</g>
<!-- NoMove_outputp1 -->
<g id="node9" class="node">
<title>NoMove_outputp1</title>
<ellipse fill="lightblue" stroke="black" cx="1388.86" cy="-60.1" rx="60.21" ry="60.21"/>
<text text-anchor="middle" x="1388.86" y="-57.9" font-family="Times New Roman,serif" font-size="9.00">NoMove_outputp1</text>
</g>
<!-- offy1&#45;&gt;NoMove_outputp1 -->
<g id="edge3" class="edge">
<title>offy1&#45;&gt;NoMove_outputp1</title>
<path fill="none" stroke="green" stroke-width="0.27" d="M1133.11,-163.29C1170.16,-160.8 1256.09,-151.79 1319.86,-120.21 1326.03,-117.15 1332.11,-113.42 1337.94,-109.33"/>
<polygon fill="green" stroke="green" stroke-width="0.27" points="1340.36,-111.89 1346.29,-103.11 1336.18,-106.27 1340.36,-111.89"/>
</g>
<!-- WMove_outputp1 -->
<g id="node12" class="node">
<title>WMove_outputp1</title>
<ellipse fill="lightblue" stroke="black" cx="1114.86" cy="-60.1" rx="57.97" ry="57.97"/>
<text text-anchor="middle" x="1114.86" y="-57.9" font-family="Times New Roman,serif" font-size="9.00">WMove_outputp1</text>
</g>
<!-- offy1&#45;&gt;WMove_outputp1 -->
<g id="edge69" class="edge">
<title>offy1&#45;&gt;WMove_outputp1</title>
<path fill="none" stroke="green" stroke-width="0.25" stroke-dasharray="1,5" d="M1114.86,-156.12C1114.86,-149.58 1114.86,-139.67 1114.86,-128.69"/>
<polygon fill="green" stroke="green" stroke-width="0.25" points="1118.36,-128.37 1114.86,-118.37 1111.36,-128.37 1118.36,-128.37"/>
</g>
<!-- offy1&#45;&gt;SMove_outputp1 -->
<g id="edge74" class="edge">
<title>offy1&#45;&gt;SMove_outputp1</title>
<path fill="none" stroke="red" stroke-width="0.26" stroke-dasharray="1,5" d="M1096.69,-158.22C1093.77,-157.43 1090.75,-156.72 1087.86,-156.21 963.11,-134.07 635.53,-169.61 518.86,-120.21 511.75,-117.2 504.91,-113.07 498.51,-108.37"/>
<polygon fill="red" stroke="red" stroke-width="0.26" points="500.67,-105.62 490.66,-102.18 496.34,-111.12 500.67,-105.62"/>
</g>
<!-- offy1&#45;&gt;NoMove_outputp2 -->
<g id="edge59" class="edge">
<title>offy1&#45;&gt;NoMove_outputp2</title>
<path fill="none" stroke="green" stroke-width="0.84" d="M1096.69,-158.27C1093.76,-157.48 1090.74,-156.75 1087.86,-156.21 898.94,-120.72 834.22,-194.32 656.86,-120.21 650.26,-117.45 643.83,-113.81 637.72,-109.69"/>
<polygon fill="green" stroke="green" stroke-width="0.84" points="639.75,-106.84 629.59,-103.82 635.64,-112.51 639.75,-106.84"/>
</g>
<!-- offy1&#45;&gt;NMove_outputp2 -->
<g id="edge53" class="edge">
<title>offy1&#45;&gt;NMove_outputp2</title>
<path fill="none" stroke="red" stroke-width="0.21" d="M1101.37,-156.17C1087.54,-147.75 1065.62,-133.87 1047.86,-120.21 1042.16,-115.82 1036.34,-111.07 1030.64,-106.23"/>
<polygon fill="red" stroke="red" stroke-width="0.21" points="1032.81,-103.48 1022.95,-99.6 1028.24,-108.78 1032.81,-103.48"/>
</g>
<!-- offy1&#45;&gt;SMove_outputp2 -->
<g id="edge5" class="edge">
<title>offy1&#45;&gt;SMove_outputp2</title>
<path fill="none" stroke="green" stroke-width="0.69" stroke-dasharray="1,5" d="M1096.67,-158.36C1093.74,-157.56 1090.73,-156.8 1087.86,-156.21 955.91,-128.97 909.41,-176.19 786.86,-120.21 780.09,-117.11 773.54,-113.05 767.37,-108.5"/>
<polygon fill="green" stroke="green" stroke-width="0.69" points="769.22,-105.5 759.2,-102.04 764.87,-110.99 769.22,-105.5"/>
</g>
<!-- NoMove_outputp3 -->
<g id="node19" class="node">
<title>NoMove_outputp3</title>
<ellipse fill="lightblue" stroke="black" cx="319.86" cy="-60.1" rx="60.21" ry="60.21"/>
<text text-anchor="middle" x="319.86" y="-57.9" font-family="Times New Roman,serif" font-size="9.00">NoMove_outputp3</text>
</g>
<!-- offy1&#45;&gt;NoMove_outputp3 -->
<g id="edge30" class="edge">
<title>offy1&#45;&gt;NoMove_outputp3</title>
<path fill="none" stroke="green" stroke-width="0.32" d="M1096.7,-158.19C1093.77,-157.41 1090.75,-156.7 1087.86,-156.21 934.56,-129.93 533.31,-177.88 388.86,-120.21 382.21,-117.55 375.76,-113.98 369.63,-109.91"/>
<polygon fill="green" stroke="green" stroke-width="0.32" points="371.66,-107.05 361.49,-104.07 367.58,-112.74 371.66,-107.05"/>
</g>
<!-- offy1&#45;&gt;EMove_outputp3 -->
<g id="edge73" class="edge">
<title>offy1&#45;&gt;EMove_outputp3</title>
<path fill="none" stroke="green" stroke-width="0.52" stroke-dasharray="1,5" d="M1096.62,-158.58C1093.7,-157.75 1090.71,-156.93 1087.86,-156.21 1012.13,-137.1 985.28,-156 915.86,-120.21 909.39,-116.87 903.09,-112.7 897.13,-108.13"/>
<polygon fill="green" stroke="green" stroke-width="0.52" points="899.18,-105.29 889.22,-101.68 894.76,-110.72 899.18,-105.29"/>
</g>
<!-- NMove_outputp3 -->
<g id="node21" class="node">
<title>NMove_outputp3</title>
<ellipse fill="lightblue" stroke="black" cx="2308.86" cy="-60.1" rx="56.64" ry="56.64"/>
<text text-anchor="middle" x="2308.86" y="-57.9" font-family="Times New Roman,serif" font-size="9.00">NMove_outputp3</text>
</g>
<!-- offy1&#45;&gt;NMove_outputp3 -->
<g id="edge56" class="edge">
<title>offy1&#45;&gt;NMove_outputp3</title>
<path fill="none" stroke="green" stroke-width="0.25" stroke-dasharray="1,5" d="M1132.98,-162.67C1154.6,-160.88 1191.84,-157.95 1223.86,-156.21 1337.1,-150.06 2138.83,-162.97 2243.86,-120.21 2250.66,-117.44 2257.2,-113.62 2263.34,-109.25"/>
<polygon fill="green" stroke="green" stroke-width="0.25" points="2265.67,-111.87 2271.44,-102.99 2261.39,-106.33 2265.67,-111.87"/>
</g>
<!-- WMove_outputp3 -->
<g id="node22" class="node">
<title>WMove_outputp3</title>
<ellipse fill="lightblue" stroke="black" cx="1915.86" cy="-60.1" rx="57.97" ry="57.97"/>
<text text-anchor="middle" x="1915.86" y="-57.9" font-family="Times New Roman,serif" font-size="9.00">WMove_outputp3</text>
</g>
<!-- offy1&#45;&gt;WMove_outputp3 -->
<g id="edge78" class="edge">
<title>offy1&#45;&gt;WMove_outputp3</title>
<path fill="none" stroke="red" stroke-width="0.35" d="M1132.98,-162.79C1154.61,-161.12 1191.86,-158.3 1223.86,-156.21 1362.68,-147.12 1720.2,-173.13 1848.86,-120.21 1855.67,-117.41 1862.25,-113.62 1868.46,-109.3"/>
<polygon fill="red" stroke="red" stroke-width="0.35" points="1870.79,-111.93 1876.68,-103.12 1866.59,-106.33 1870.79,-111.93"/>
</g>
<!-- offy1&#45;&gt;NoMove_outputp4 -->
<g id="edge14" class="edge">
<title>offy1&#45;&gt;NoMove_outputp4</title>
<path fill="none" stroke="red" stroke-width="1.05" stroke-dasharray="1,5" d="M1128.3,-156.09C1142.07,-147.6 1163.95,-133.67 1181.86,-120.21 1187.28,-116.13 1192.83,-111.76 1198.31,-107.3"/>
<polygon fill="red" stroke="red" stroke-width="1.05" points="1200.77,-109.8 1206.26,-100.74 1196.32,-104.4 1200.77,-109.8"/>
</g>
<!-- WMove_outputp4 -->
<g id="node27" class="node">
<title>WMove_outputp4</title>
<ellipse fill="lightblue" stroke="black" cx="2441.86" cy="-60.1" rx="57.97" ry="57.97"/>
<text text-anchor="middle" x="2441.86" y="-57.9" font-family="Times New Roman,serif" font-size="9.00">WMove_outputp4</text>
</g>
<!-- offy1&#45;&gt;WMove_outputp4 -->
<g id="edge60" class="edge">
<title>offy1&#45;&gt;WMove_outputp4</title>
<path fill="none" stroke="green" stroke-width="0.21" stroke-dasharray="1,5" d="M1132.98,-162.64C1154.59,-160.83 1191.84,-157.88 1223.86,-156.21 1351.64,-149.52 2255.9,-167.32 2374.86,-120.21 2381.7,-117.5 2388.31,-113.76 2394.53,-109.48"/>
<polygon fill="green" stroke="green" stroke-width="0.21" points="2396.85,-112.12 2402.77,-103.33 2392.66,-106.51 2396.85,-112.12"/>
</g>
<!-- offx2 -->
<g id="node3" class="node">
<title>offx2</title>
<polygon fill="lightgray" stroke="black" points="1829.86,-174.21 1793.86,-174.21 1793.86,-156.21 1829.86,-156.21 1829.86,-174.21"/>
<text text-anchor="middle" x="1811.86" y="-163.01" font-family="Times New Roman,serif" font-size="9.00">offx2</text>
</g>
<!-- offx2&#45;&gt;NoMove_outputp1 -->
<g id="edge67" class="edge">
<title>offx2&#45;&gt;NoMove_outputp1</title>
<path fill="none" stroke="green" stroke-width="0.35" stroke-dasharray="1,5" d="M1793.56,-163.32C1729.97,-160.04 1519.18,-147.3 1457.86,-120.21 1451.31,-117.32 1444.92,-113.59 1438.83,-109.42"/>
<polygon fill="green" stroke="green" stroke-width="0.35" points="1440.87,-106.58 1430.73,-103.5 1436.74,-112.23 1440.87,-106.58"/>
</g>
<!-- offx2&#45;&gt;NMove_outputp2 -->
<g id="edge63" class="edge">
<title>offx2&#45;&gt;NMove_outputp2</title>
<path fill="none" stroke="green" stroke-width="5.61" d="M1793.64,-163.07C1768.33,-161.5 1721.12,-158.58 1680.86,-156.21 1540.21,-147.91 1177.98,-174.24 1047.86,-120.21 1040.93,-117.33 1034.24,-113.4 1027.95,-108.92"/>
<polygon fill="green" stroke="green" stroke-width="5.61" points="1030.56,-104.74 1019.65,-102.53 1024.58,-112.52 1030.56,-104.74"/>
</g>
<!-- offx2&#45;&gt;NMove_outputp3 -->
<g id="edge10" class="edge">
<title>offx2&#45;&gt;NMove_outputp3</title>
<path fill="none" stroke="green" stroke-width="0.42" stroke-dasharray="1,5" d="M1830.1,-163.86C1902.32,-162.24 2167.96,-154.08 2243.86,-120.21 2250.56,-117.22 2257.04,-113.26 2263.15,-108.81"/>
<polygon fill="green" stroke="green" stroke-width="0.42" points="2265.52,-111.4 2271.22,-102.48 2261.2,-105.89 2265.52,-111.4"/>
</g>
<!-- offx2&#45;&gt;WMove_outputp3 -->
<g id="edge70" class="edge">
<title>offx2&#45;&gt;WMove_outputp3</title>
<path fill="none" stroke="red" stroke-width="0.15" stroke-dasharray="1,5" d="M1820.02,-156.12C1830.51,-145.72 1849.55,-126.85 1867.91,-108.64"/>
<polygon fill="red" stroke="red" stroke-width="0.15" points="1870.53,-110.97 1875.17,-101.45 1865.6,-106 1870.53,-110.97"/>
</g>
<!-- offx2&#45;&gt;SMove_outputp3 -->
<g id="edge61" class="edge">
<title>offx2&#45;&gt;SMove_outputp3</title>
<path fill="none" stroke="green" stroke-width="0.2" d="M1829.91,-162.99C1887.11,-158.92 2063.64,-144.63 2114.86,-120.21 2121.43,-117.08 2127.79,-113.03 2133.79,-108.53"/>
<polygon fill="green" stroke="green" stroke-width="0.2" points="2136.13,-111.14 2141.73,-102.15 2131.75,-105.69 2136.13,-111.14"/>
</g>
<!-- offx2&#45;&gt;NoMove_outputp4 -->
<g id="edge58" class="edge">
<title>offx2&#45;&gt;NoMove_outputp4</title>
<path fill="none" stroke="green" stroke-width="0.1" stroke-dasharray="1,5" d="M1793.81,-162.9C1707.73,-156.64 1342.16,-129.6 1319.86,-120.21 1313.27,-117.43 1306.84,-113.78 1300.73,-109.65"/>
<polygon fill="green" stroke="green" stroke-width="0.1" points="1302.76,-106.8 1292.61,-103.77 1298.66,-112.47 1302.76,-106.8"/>
</g>
<!-- offx2&#45;&gt;NMove_outputp4 -->
<g id="edge18" class="edge">
<title>offx2&#45;&gt;NMove_outputp4</title>
<path fill="none" stroke="green" stroke-width="0.76" stroke-dasharray="1,5" d="M1793.75,-163.88C1754.37,-162.48 1658.83,-155.43 1588.86,-120.21 1582.4,-116.95 1576.1,-112.88 1570.12,-108.39"/>
<polygon fill="green" stroke="green" stroke-width="0.76" points="1572.19,-105.57 1562.19,-102.07 1567.83,-111.04 1572.19,-105.57"/>
</g>
<!-- offx2&#45;&gt;WMove_outputp4 -->
<g id="edge2" class="edge">
<title>offx2&#45;&gt;WMove_outputp4</title>
<path fill="none" stroke="green" stroke-width="0.2" stroke-dasharray="1,5" d="M1829.88,-164.32C1914.56,-164.61 2273.18,-163.25 2374.86,-120.21 2381.64,-117.34 2388.2,-113.51 2394.4,-109.16"/>
<polygon fill="green" stroke="green" stroke-width="0.2" points="2396.74,-111.78 2402.62,-102.96 2392.53,-106.19 2396.74,-111.78"/>
</g>
<!-- offy2 -->
<g id="node4" class="node">
<title>offy2</title>
<polygon fill="lightgray" stroke="black" points="1078.86,-174.21 1042.86,-174.21 1042.86,-156.21 1078.86,-156.21 1078.86,-174.21"/>
<text text-anchor="middle" x="1060.86" y="-163.01" font-family="Times New Roman,serif" font-size="9.00">offy2</text>
</g>
<!-- offy2&#45;&gt;NoMove_outputp1 -->
<g id="edge50" class="edge">
<title>offy2&#45;&gt;NoMove_outputp1</title>
<path fill="none" stroke="green" stroke-width="0.49" d="M1079.07,-158.45C1082,-157.63 1085,-156.85 1087.86,-156.21 1189.67,-133.34 1225.06,-163.81 1319.86,-120.21 1326.36,-117.22 1332.73,-113.43 1338.8,-109.22"/>
<polygon fill="green" stroke="green" stroke-width="0.49" points="1340.91,-112.01 1346.88,-103.26 1336.76,-106.38 1340.91,-112.01"/>
</g>
<!-- offy2&#45;&gt;EMove_outputp1 -->
<g id="edge33" class="edge">
<title>offy2&#45;&gt;EMove_outputp1</title>
<path fill="none" stroke="green" stroke-width="0.13" stroke-dasharray="1,5" d="M1042.62,-163.4C912.2,-157.59 126.4,-122.5 120.86,-120.21 113.73,-117.26 106.87,-113.16 100.47,-108.49"/>
<polygon fill="green" stroke="green" stroke-width="0.13" points="102.63,-105.73 92.6,-102.3 98.3,-111.24 102.63,-105.73"/>
</g>
<!-- offy2&#45;&gt;WMove_outputp1 -->
<g id="edge11" class="edge">
<title>offy2&#45;&gt;WMove_outputp1</title>
<path fill="none" stroke="red" stroke-width="0.11" stroke-dasharray="1,5" d="M1065.1,-156.12C1069.3,-148.1 1076.15,-135.02 1083.44,-121.1"/>
<polygon fill="red" stroke="red" stroke-width="0.11" points="1086.73,-122.36 1088.27,-111.87 1080.53,-119.11 1086.73,-122.36"/>
</g>
<!-- EMove_outputp2 -->
<g id="node15" class="node">
<title>EMove_outputp2</title>
<ellipse fill="lightblue" stroke="black" cx="1653.86" cy="-60.1" rx="55.72" ry="55.72"/>
<text text-anchor="middle" x="1653.86" y="-57.9" font-family="Times New Roman,serif" font-size="9.00">EMove_outputp2</text>
</g>
<!-- offy2&#45;&gt;EMove_outputp2 -->
<g id="edge28" class="edge">
<title>offy2&#45;&gt;EMove_outputp2</title>
<path fill="none" stroke="green" stroke-width="3.87" d="M1079.03,-158.24C1081.96,-157.45 1084.98,-156.73 1087.86,-156.21 1197.9,-136.2 1487.23,-164.65 1589.86,-120.21 1596.64,-117.27 1603.15,-113.31 1609.27,-108.82"/>
<polygon fill="green" stroke="green" stroke-width="3.87" points="1611.68,-111.37 1617.34,-102.41 1607.33,-105.89 1611.68,-111.37"/>
</g>
<!-- offy2&#45;&gt;NMove_outputp2 -->
<g id="edge34" class="edge">
<title>offy2&#45;&gt;NMove_outputp2</title>
<path fill="none" stroke="green" stroke-width="0.21" d="M1054.66,-156.12C1047.41,-146.65 1034.77,-130.15 1022.03,-113.53"/>
<polygon fill="green" stroke="green" stroke-width="0.21" points="1024.65,-111.2 1015.79,-105.39 1019.1,-115.46 1024.65,-111.2"/>
</g>
<!-- offy2&#45;&gt;EMove_outputp3 -->
<g id="edge22" class="edge">
<title>offy2&#45;&gt;EMove_outputp3</title>
<path fill="none" stroke="green" stroke-width="0.45" d="M1042.4,-161.35C1013.78,-156.34 957.64,-144.13 915.86,-120.21 909.64,-116.64 903.52,-112.37 897.69,-107.77"/>
<polygon fill="green" stroke="green" stroke-width="0.45" points="899.86,-105.02 889.92,-101.34 895.39,-110.41 899.86,-105.02"/>
</g>
<!-- offy2&#45;&gt;NoMove_outputp4 -->
<g id="edge47" class="edge">
<title>offy2&#45;&gt;NoMove_outputp4</title>
<path fill="none" stroke="red" stroke-width="0.75" d="M1079.03,-158.49C1108.17,-149.17 1163.91,-130.69 1181.86,-120.21 1187.81,-116.73 1193.74,-112.73 1199.48,-108.47"/>
<polygon fill="red" stroke="red" stroke-width="0.75" points="1201.97,-110.97 1207.73,-102.08 1197.68,-105.43 1201.97,-110.97"/>
</g>
<!-- offy2&#45;&gt;NMove_outputp4 -->
<g id="edge39" class="edge">
<title>offy2&#45;&gt;NMove_outputp4</title>
<path fill="none" stroke="green" stroke-width="1.22" d="M1079.04,-158.31C1081.97,-157.51 1084.98,-156.77 1087.86,-156.21 1250.03,-124.6 1306.58,-186.62 1457.86,-120.21 1464.74,-117.19 1471.39,-113.17 1477.65,-108.65"/>
<polygon fill="green" stroke="green" stroke-width="1.22" points="1480.19,-111.11 1485.94,-102.21 1475.9,-105.58 1480.19,-111.11"/>
</g>
<!-- SMove_outputp4 -->
<g id="node28" class="node">
<title>SMove_outputp4</title>
<ellipse fill="lightblue" stroke="black" cx="185.86" cy="-60.1" rx="55.72" ry="55.72"/>
<text text-anchor="middle" x="185.86" y="-57.9" font-family="Times New Roman,serif" font-size="9.00">SMove_outputp4</text>
</g>
<!-- offy2&#45;&gt;SMove_outputp4 -->
<g id="edge65" class="edge">
<title>offy2&#45;&gt;SMove_outputp4</title>
<path fill="none" stroke="red" stroke-width="0.39" d="M1042.5,-163.38C923.85,-158.01 269.76,-128.11 250.86,-120.21 243.74,-117.23 236.89,-113.12 230.49,-108.44"/>
<polygon fill="red" stroke="red" stroke-width="0.39" points="232.65,-105.68 222.63,-102.25 228.32,-111.18 232.65,-105.68"/>
</g>
<!-- offx3 -->
<g id="node5" class="node">
<title>offx3</title>
<polygon fill="lightgray" stroke="black" points="1535.86,-174.21 1499.86,-174.21 1499.86,-156.21 1535.86,-156.21 1535.86,-174.21"/>
<text text-anchor="middle" x="1517.86" y="-163.01" font-family="Times New Roman,serif" font-size="9.00">offx3</text>
</g>
<!-- offx3&#45;&gt;EMove_outputp1 -->
<g id="edge20" class="edge">
<title>offx3&#45;&gt;EMove_outputp1</title>
<path fill="none" stroke="red" stroke-width="0.85" d="M1499.8,-163.59C1459.81,-162.23 1360.78,-158.88 1277.86,-156.21 1149.31,-152.07 240.09,-168.45 120.86,-120.21 113.86,-117.38 107.14,-113.43 100.85,-108.91"/>
<polygon fill="red" stroke="red" stroke-width="0.85" points="102.59,-105.82 92.55,-102.43 98.28,-111.34 102.59,-105.82"/>
</g>
<!-- NMove_outputp1 -->
<g id="node11" class="node">
<title>NMove_outputp1</title>
<ellipse fill="lightblue" stroke="black" cx="2048.86" cy="-60.1" rx="56.64" ry="56.64"/>
<text text-anchor="middle" x="2048.86" y="-57.9" font-family="Times New Roman,serif" font-size="9.00">NMove_outputp1</text>
</g>
<!-- offx3&#45;&gt;NMove_outputp1 -->
<g id="edge75" class="edge">
<title>offx3&#45;&gt;NMove_outputp1</title>
<path fill="none" stroke="green" stroke-width="0.21" stroke-dasharray="1,5" d="M1536.02,-162.81C1619.36,-156.35 1961.99,-129.34 1982.86,-120.21 1989.74,-117.2 1996.4,-113.19 2002.66,-108.67"/>
<polygon fill="green" stroke="green" stroke-width="0.21" points="2005.2,-111.13 2010.95,-102.23 2000.91,-105.6 2005.2,-111.13"/>
</g>
<!-- offx3&#45;&gt;NoMove_outputp2 -->
<g id="edge6" class="edge">
<title>offx3&#45;&gt;NoMove_outputp2</title>
<path fill="none" stroke="red" stroke-width="0.31" d="M1499.63,-163.61C1378.84,-159.61 697.39,-136.38 656.86,-120.21 650.21,-117.56 643.76,-113.99 637.63,-109.91"/>
<polygon fill="red" stroke="red" stroke-width="0.31" points="639.66,-107.06 629.49,-104.07 635.58,-112.74 639.66,-107.06"/>
</g>
<!-- offx3&#45;&gt;EMove_outputp2 -->
<g id="edge15" class="edge">
<title>offx3&#45;&gt;EMove_outputp2</title>
<path fill="none" stroke="red" stroke-width="0.27" stroke-dasharray="1,5" d="M1533.03,-156.09C1548,-147.82 1571.28,-134.25 1589.86,-120.21 1595.37,-116.04 1600.96,-111.48 1606.41,-106.8"/>
<polygon fill="red" stroke="red" stroke-width="0.27" points="1609.08,-109.11 1614.29,-99.88 1604.46,-103.85 1609.08,-109.11"/>
</g>
<!-- WMove_outputp2 -->
<g id="node17" class="node">
<title>WMove_outputp2</title>
<ellipse fill="lightblue" stroke="black" cx="2575.86" cy="-60.1" rx="57.97" ry="57.97"/>
<text text-anchor="middle" x="2575.86" y="-57.9" font-family="Times New Roman,serif" font-size="9.00">WMove_outputp2</text>
</g>
<!-- offx3&#45;&gt;WMove_outputp2 -->
<g id="edge49" class="edge">
<title>offx3&#45;&gt;WMove_outputp2</title>
<path fill="none" stroke="red" stroke-width="1.14" stroke-dasharray="1,5" d="M1535.98,-162.7C1557.6,-160.94 1594.85,-158.04 1626.86,-156.21 1724.78,-150.62 2417.84,-156.76 2508.86,-120.21 2515.69,-117.47 2522.29,-113.71 2528.51,-109.41"/>
<polygon fill="red" stroke="red" stroke-width="1.14" points="2530.83,-112.05 2536.74,-103.26 2526.63,-106.44 2530.83,-112.05"/>
</g>
<!-- offx3&#45;&gt;SMove_outputp2 -->
<g id="edge35" class="edge">
<title>offx3&#45;&gt;SMove_outputp2</title>
<path fill="none" stroke="red" stroke-width="0.18" d="M1499.63,-163.45C1389.9,-158.87 820.73,-134.49 786.86,-120.21 779.75,-117.21 772.9,-113.08 766.5,-108.4"/>
<polygon fill="red" stroke="red" stroke-width="0.18" points="768.67,-105.64 758.65,-102.2 764.33,-111.14 768.67,-105.64"/>
</g>
<!-- offx3&#45;&gt;EMove_outputp3 -->
<g id="edge55" class="edge">
<title>offx3&#45;&gt;EMove_outputp3</title>
<path fill="none" stroke="red" stroke-width="0.25" stroke-dasharray="1,5" d="M1499.8,-163.6C1405.36,-160.31 970.66,-143.98 915.86,-120.21 909.09,-117.27 902.57,-113.3 896.46,-108.81"/>
<polygon fill="red" stroke="red" stroke-width="0.25" points="898.4,-105.88 888.39,-102.4 894.04,-111.36 898.4,-105.88"/>
</g>
<!-- offx3&#45;&gt;NMove_outputp3 -->
<g id="edge44" class="edge">
<title>offx3&#45;&gt;NMove_outputp3</title>
<path fill="none" stroke="green" stroke-width="0.26" stroke-dasharray="1,5" d="M1535.98,-162.79C1557.61,-161.13 1594.86,-158.32 1626.86,-156.21 1763.91,-147.18 2117.26,-173.45 2243.86,-120.21 2250.63,-117.36 2257.15,-113.5 2263.27,-109.1"/>
<polygon fill="green" stroke="green" stroke-width="0.26" points="2265.62,-111.71 2271.37,-102.81 2261.32,-106.18 2265.62,-111.71"/>
</g>
<!-- offx3&#45;&gt;SMove_outputp3 -->
<g id="edge4" class="edge">
<title>offx3&#45;&gt;SMove_outputp3</title>
<path fill="none" stroke="green" stroke-width="1.16" d="M1536.04,-162.87C1636.02,-155.53 2114.43,-120.39 2114.86,-120.21 2121.63,-117.27 2128.15,-113.3 2134.26,-108.8"/>
<polygon fill="green" stroke="green" stroke-width="1.16" points="2136.68,-111.35 2142.33,-102.39 2132.32,-105.87 2136.68,-111.35"/>
</g>
<!-- offx3&#45;&gt;NoMove_outputp4 -->
<g id="edge62" class="edge">
<title>offx3&#45;&gt;NoMove_outputp4</title>
<path fill="none" stroke="green" stroke-width="0.61" stroke-dasharray="1,5" d="M1499.68,-163.11C1463.59,-160.32 1381.13,-150.83 1319.86,-120.21 1313.7,-117.13 1307.63,-113.38 1301.81,-109.28"/>
<polygon fill="green" stroke="green" stroke-width="0.61" points="1303.57,-106.23 1293.46,-103.06 1299.39,-111.84 1303.57,-106.23"/>
</g>
<!-- offy3 -->
<g id="node6" class="node">
<title>offy3</title>
<polygon fill="lightgray" stroke="black" points="2196.86,-174.21 2160.86,-174.21 2160.86,-156.21 2196.86,-156.21 2196.86,-174.21"/>
<text text-anchor="middle" x="2178.86" y="-163.01" font-family="Times New Roman,serif" font-size="9.00">offy3</text>
</g>
<!-- offy3&#45;&gt;NMove_outputp1 -->
<g id="edge64" class="edge">
<title>offy3&#45;&gt;NMove_outputp1</title>
<path fill="none" stroke="green" stroke-width="0.47" stroke-dasharray="1,5" d="M2165.52,-155.97C2152.1,-147.51 2131,-133.69 2113.86,-120.21 2108.46,-115.96 2102.96,-111.38 2097.54,-106.72"/>
<polygon fill="green" stroke="green" stroke-width="0.47" points="2099.53,-103.81 2089.7,-99.85 2094.92,-109.07 2099.53,-103.81"/>
</g>
<!-- offy3&#45;&gt;EMove_outputp2 -->
<g id="edge76" class="edge">
<title>offy3&#45;&gt;EMove_outputp2</title>
<path fill="none" stroke="green" stroke-width="0.49" stroke-dasharray="1,5" d="M2160.73,-163.99C2085.77,-162.85 1800.2,-156.21 1718.86,-120.21 1712.05,-117.2 1705.48,-113.18 1699.29,-108.66"/>
<polygon fill="green" stroke="green" stroke-width="0.49" points="1701.14,-105.66 1691.12,-102.23 1696.81,-111.16 1701.14,-105.66"/>
</g>
<!-- offy3&#45;&gt;WMove_outputp2 -->
<g id="edge9" class="edge">
<title>offy3&#45;&gt;WMove_outputp2</title>
<path fill="none" stroke="red" stroke-width="0.42" stroke-dasharray="1,5" d="M2197.19,-163.17C2257.99,-159.5 2452.32,-145.98 2508.86,-120.21 2515.46,-117.2 2521.88,-113.32 2527.97,-108.99"/>
<polygon fill="red" stroke="red" stroke-width="0.42" points="2530.22,-111.67 2536.06,-102.83 2525.98,-106.1 2530.22,-111.67"/>
</g>
<!-- offy3&#45;&gt;NMove_outputp3 -->
<g id="edge17" class="edge">
<title>offy3&#45;&gt;NMove_outputp3</title>
<path fill="none" stroke="red" stroke-width="0.33" stroke-dasharray="1,5" d="M2192.2,-155.97C2205.62,-147.51 2226.72,-133.69 2243.86,-120.21 2249.26,-115.96 2254.77,-111.38 2260.18,-106.72"/>
<polygon fill="red" stroke="red" stroke-width="0.33" points="2262.81,-109.07 2268.02,-99.85 2258.19,-103.81 2262.81,-109.07"/>
</g>
<!-- offy3&#45;&gt;SMove_outputp3 -->
<g id="edge52" class="edge">
<title>offy3&#45;&gt;SMove_outputp3</title>
<path fill="none" stroke="green" stroke-width="0.82" stroke-dasharray="1,5" d="M2178.86,-156.12C2178.86,-149.15 2178.86,-138.35 2178.86,-126.51"/>
<polygon fill="green" stroke="green" stroke-width="0.82" points="2182.36,-126.37 2178.86,-116.37 2175.36,-126.37 2182.36,-126.37"/>
</g>
<!-- offy3&#45;&gt;NMove_outputp4 -->
<g id="edge77" class="edge">
<title>offy3&#45;&gt;NMove_outputp4</title>
<path fill="none" stroke="green" stroke-width="0.59" stroke-dasharray="1,5" d="M2160.86,-163.56C2067.69,-160.13 1642.59,-143.32 1588.86,-120.21 1582.12,-117.31 1575.61,-113.41 1569.5,-108.99"/>
<polygon fill="green" stroke="green" stroke-width="0.59" points="1571.45,-106.07 1561.41,-102.69 1567.14,-111.59 1571.45,-106.07"/>
</g>
<!-- offy3&#45;&gt;WMove_outputp4 -->
<g id="edge37" class="edge">
<title>offy3&#45;&gt;WMove_outputp4</title>
<path fill="none" stroke="green" stroke-width="0.24" stroke-dasharray="1,5" d="M2196.9,-163.15C2232.69,-160.42 2314.44,-151.04 2374.86,-120.21 2381.32,-116.91 2387.65,-112.85 2393.69,-108.41"/>
<polygon fill="green" stroke="green" stroke-width="0.24" points="2395.99,-111.06 2401.73,-102.16 2391.69,-105.53 2395.99,-111.06"/>
</g>
<!-- offx4 -->
<g id="node7" class="node">
<title>offx4</title>
<polygon fill="lightgray" stroke="black" points="1671.86,-174.21 1635.86,-174.21 1635.86,-156.21 1671.86,-156.21 1671.86,-174.21"/>
<text text-anchor="middle" x="1653.86" y="-163.01" font-family="Times New Roman,serif" font-size="9.00">offx4</text>
</g>
<!-- offx4&#45;&gt;NMove_outputp1 -->
<g id="edge51" class="edge">
<title>offx4&#45;&gt;NMove_outputp1</title>
<path fill="none" stroke="green" stroke-width="0.32" d="M1672.15,-163.18C1732.78,-159.54 1926.59,-146.13 1982.86,-120.21 1989.58,-117.11 1996.11,-113.09 2002.28,-108.6"/>
<polygon fill="green" stroke="green" stroke-width="0.32" points="2004.72,-111.14 2010.45,-102.23 2000.41,-105.62 2004.72,-111.14"/>
</g>
<!-- offx4&#45;&gt;WMove_outputp1 -->
<g id="edge38" class="edge">
<title>offx4&#45;&gt;WMove_outputp1</title>
<path fill="none" stroke="green" stroke-width="1.12" d="M1635.71,-162.83C1551.62,-156.42 1203.11,-129.39 1181.86,-120.21 1175.11,-117.29 1168.56,-113.42 1162.36,-109.06"/>
<polygon fill="green" stroke="green" stroke-width="1.12" points="1164.24,-106.09 1154.16,-102.85 1160.02,-111.67 1164.24,-106.09"/>
</g>
<!-- offx4&#45;&gt;NMove_outputp2 -->
<g id="edge16" class="edge">
<title>offx4&#45;&gt;NMove_outputp2</title>
<path fill="none" stroke="green" stroke-width="1.07" d="M1635.73,-162.87C1614.1,-161.28 1576.84,-158.54 1544.86,-156.21 1434.42,-148.16 1149.8,-163.46 1047.86,-120.21 1040.95,-117.28 1034.27,-113.31 1028,-108.82"/>
<polygon fill="green" stroke="green" stroke-width="1.07" points="1029.75,-105.75 1019.7,-102.41 1025.47,-111.29 1029.75,-105.75"/>
</g>
<!-- offx4&#45;&gt;WMove_outputp2 -->
<g id="edge26" class="edge">
<title>offx4&#45;&gt;WMove_outputp2</title>
<path fill="none" stroke="red" stroke-width="0.31" stroke-dasharray="1,5" d="M1672.08,-163.03C1697.38,-161.41 1744.59,-158.44 1784.86,-156.21 1865.28,-151.75 2434.25,-150.55 2508.86,-120.21 2515.68,-117.44 2522.27,-113.66 2528.48,-109.35"/>
<polygon fill="red" stroke="red" stroke-width="0.31" points="2530.81,-111.98 2536.71,-103.19 2526.61,-106.38 2530.81,-111.98"/>
</g>
<!-- offx4&#45;&gt;EMove_outputp3 -->
<g id="edge48" class="edge">
<title>offx4&#45;&gt;EMove_outputp3</title>
<path fill="none" stroke="red" stroke-width="0.59" d="M1635.74,-162.79C1614.11,-161.12 1576.86,-158.3 1544.86,-156.21 1405.15,-147.08 1044.74,-174.91 915.86,-120.21 909.07,-117.32 902.53,-113.39 896.41,-108.91"/>
<polygon fill="red" stroke="red" stroke-width="0.59" points="898.35,-105.98 888.34,-102.52 894,-111.47 898.35,-105.98"/>
</g>
<!-- offx4&#45;&gt;WMove_outputp3 -->
<g id="edge46" class="edge">
<title>offx4&#45;&gt;WMove_outputp3</title>
<path fill="none" stroke="red" stroke-width="0.39" d="M1672.08,-163.11C1707.84,-160.32 1788.91,-150.84 1848.86,-120.21 1855.32,-116.91 1861.65,-112.84 1867.69,-108.4"/>
<polygon fill="red" stroke="red" stroke-width="0.39" points="1869.98,-111.05 1875.73,-102.15 1865.69,-105.53 1869.98,-111.05"/>
</g>
<!-- offx4&#45;&gt;SMove_outputp3 -->
<g id="edge31" class="edge">
<title>offx4&#45;&gt;SMove_outputp3</title>
<path fill="none" stroke="green" stroke-width="3.8" d="M1672.01,-163.16C1752.35,-158.45 2073.8,-138.56 2114.86,-120.21 2121.51,-117.24 2127.91,-113.3 2133.94,-108.85"/>
<polygon fill="green" stroke="green" stroke-width="3.8" points="2136.25,-111.48 2141.91,-102.52 2131.9,-106 2136.25,-111.48"/>
</g>
<!-- offx4&#45;&gt;NoMove_outputp4 -->
<g id="edge13" class="edge">
<title>offx4&#45;&gt;NoMove_outputp4</title>
<path fill="none" stroke="green" stroke-width="0.38" stroke-dasharray="1,5" d="M1635.44,-162.4C1569.69,-155.87 1348.9,-133.17 1319.86,-120.21 1313.33,-117.29 1306.94,-113.55 1300.85,-109.37"/>
<polygon fill="green" stroke="green" stroke-width="0.38" points="1302.89,-106.53 1292.76,-103.44 1298.75,-112.17 1302.89,-106.53"/>
</g>
<!-- EMove_outputp4 -->
<g id="node25" class="node">
<title>EMove_outputp4</title>
<ellipse fill="lightblue" stroke="black" cx="1783.86" cy="-60.1" rx="55.72" ry="55.72"/>
<text text-anchor="middle" x="1783.86" y="-57.9" font-family="Times New Roman,serif" font-size="9.00">EMove_outputp4</text>
</g>
<!-- offx4&#45;&gt;EMove_outputp4 -->
<g id="edge57" class="edge">
<title>offx4&#45;&gt;EMove_outputp4</title>
<path fill="none" stroke="red" stroke-width="0.63" d="M1667.2,-155.97C1680.62,-147.51 1701.72,-133.69 1718.86,-120.21 1724.55,-115.73 1730.36,-110.89 1736.05,-105.96"/>
<polygon fill="red" stroke="red" stroke-width="0.63" points="1738.52,-108.46 1743.72,-99.23 1733.9,-103.2 1738.52,-108.46"/>
</g>
<!-- offx4&#45;&gt;NMove_outputp4 -->
<g id="edge40" class="edge">
<title>offx4&#45;&gt;NMove_outputp4</title>
<path fill="none" stroke="green" stroke-width="0.49" stroke-dasharray="1,5" d="M1640.52,-155.97C1627.1,-147.51 1606,-133.69 1588.86,-120.21 1583.46,-115.96 1577.96,-111.38 1572.54,-106.72"/>
<polygon fill="green" stroke="green" stroke-width="0.49" points="1574.53,-103.81 1564.7,-99.85 1569.92,-109.07 1574.53,-103.81"/>
</g>
<!-- offy4 -->
<g id="node8" class="node">
<title>offy4</title>
<polygon fill="lightgray" stroke="black" points="1268.86,-174.21 1232.86,-174.21 1232.86,-156.21 1268.86,-156.21 1268.86,-174.21"/>
<text text-anchor="middle" x="1250.86" y="-163.01" font-family="Times New Roman,serif" font-size="9.00">offy4</text>
</g>
<!-- offy4&#45;&gt;NoMove_outputp1 -->
<g id="edge25" class="edge">
<title>offy4&#45;&gt;NoMove_outputp1</title>
<path fill="none" stroke="green" stroke-width="0.29" d="M1264.72,-156.16C1278.93,-147.72 1301.49,-133.83 1319.86,-120.21 1325.31,-116.17 1330.87,-111.82 1336.36,-107.38"/>
<polygon fill="green" stroke="green" stroke-width="0.29" points="1338.83,-109.88 1344.33,-100.83 1334.38,-104.48 1338.83,-109.88"/>
</g>
<!-- offy4&#45;&gt;NMove_outputp1 -->
<g id="edge32" class="edge">
<title>offy4&#45;&gt;NMove_outputp1</title>
<path fill="none" stroke="green" stroke-width="0.74" stroke-dasharray="1,5" d="M1269.11,-163.45C1378.99,-158.85 1948.9,-134.38 1982.86,-120.21 1989.79,-117.32 1996.48,-113.38 2002.76,-108.9"/>
<polygon fill="green" stroke="green" stroke-width="0.74" points="2005.28,-111.38 2011.07,-102.5 2001.01,-105.83 2005.28,-111.38"/>
</g>
<!-- offy4&#45;&gt;WMove_outputp1 -->
<g id="edge72" class="edge">
<title>offy4&#45;&gt;WMove_outputp1</title>
<path fill="none" stroke="red" stroke-width="0.18" d="M1236.69,-156.05C1222.44,-147.65 1200.02,-133.88 1181.86,-120.21 1176.37,-116.07 1170.76,-111.59 1165.26,-107.02"/>
<polygon fill="red" stroke="red" stroke-width="0.18" points="1167.18,-104.06 1157.28,-100.27 1162.66,-109.4 1167.18,-104.06"/>
</g>
<!-- offy4&#45;&gt;SMove_outputp1 -->
<g id="edge68" class="edge">
<title>offy4&#45;&gt;SMove_outputp1</title>
<path fill="none" stroke="red" stroke-width="0.57" stroke-dasharray="1,5" d="M1232.74,-162.79C1211.11,-161.12 1173.86,-158.31 1141.86,-156.21 1003.48,-147.13 646.71,-173.93 518.86,-120.21 511.74,-117.22 504.9,-113.1 498.5,-108.41"/>
<polygon fill="red" stroke="red" stroke-width="0.57" points="500.66,-105.66 490.64,-102.22 496.33,-111.16 500.66,-105.66"/>
</g>
<!-- offy4&#45;&gt;NoMove_outputp2 -->
<g id="edge7" class="edge">
<title>offy4&#45;&gt;NoMove_outputp2</title>
<path fill="none" stroke="green" stroke-width="0.22" d="M1232.79,-162.88C1133.39,-155.57 657.72,-120.56 656.86,-120.21 650.24,-117.48 643.81,-113.86 637.69,-109.76"/>
<polygon fill="green" stroke="green" stroke-width="0.22" points="639.72,-106.9 629.56,-103.89 635.62,-112.58 639.72,-106.9"/>
</g>
<!-- offy4&#45;&gt;EMove_outputp2 -->
<g id="edge24" class="edge">
<title>offy4&#45;&gt;EMove_outputp2</title>
<path fill="none" stroke="green" stroke-width="0.39" stroke-dasharray="1,5" d="M1269.28,-163.29C1331.31,-159.96 1531.93,-147.29 1589.86,-120.21 1596.45,-117.13 1602.83,-113.11 1608.84,-108.63"/>
<polygon fill="green" stroke="green" stroke-width="0.39" points="1611.17,-111.25 1616.79,-102.27 1606.79,-105.78 1611.17,-111.25"/>
</g>
<!-- offy4&#45;&gt;NMove_outputp2 -->
<g id="edge41" class="edge">
<title>offy4&#45;&gt;NMove_outputp2</title>
<path fill="none" stroke="green" stroke-width="1.02" d="M1232.73,-163.37C1195.93,-161.02 1110.66,-152.26 1047.86,-120.21 1041.27,-116.84 1034.82,-112.65 1028.7,-108.07"/>
<polygon fill="green" stroke="green" stroke-width="1.02" points="1030.58,-105.09 1020.57,-101.62 1026.22,-110.58 1030.58,-105.09"/>
</g>
<!-- offy4&#45;&gt;SMove_outputp2 -->
<g id="edge1" class="edge">
<title>offy4&#45;&gt;SMove_outputp2</title>
<path fill="none" stroke="green" stroke-width="0.46" stroke-dasharray="1,5" d="M1232.74,-162.81C1149.57,-156.37 807.65,-129.4 786.86,-120.21 780.05,-117.2 773.48,-113.19 767.29,-108.67"/>
<polygon fill="green" stroke="green" stroke-width="0.46" points="769.14,-105.67 759.12,-102.23 764.81,-111.17 769.14,-105.67"/>
</g>
<!-- offy4&#45;&gt;EMove_outputp3 -->
<g id="edge54" class="edge">
<title>offy4&#45;&gt;EMove_outputp3</title>
<path fill="none" stroke="green" stroke-width="0.23" d="M1232.82,-162.48C1167.38,-156.14 944.81,-133.77 915.86,-120.21 909.27,-117.12 902.9,-113.1 896.89,-108.62"/>
<polygon fill="green" stroke="green" stroke-width="0.23" points="898.93,-105.77 888.94,-102.25 894.56,-111.24 898.93,-105.77"/>
</g>
<!-- offy4&#45;&gt;WMove_outputp3 -->
<g id="edge71" class="edge">
<title>offy4&#45;&gt;WMove_outputp3</title>
<path fill="none" stroke="green" stroke-width="0.26" stroke-dasharray="1,5" d="M1269.1,-163.56C1363.5,-160.1 1794.23,-143.19 1848.86,-120.21 1855.64,-117.36 1862.21,-113.53 1868.42,-109.19"/>
<polygon fill="green" stroke="green" stroke-width="0.26" points="1870.75,-111.81 1876.63,-103 1866.54,-106.22 1870.75,-111.81"/>
</g>
<!-- offy4&#45;&gt;NoMove_outputp4 -->
<g id="edge27" class="edge">
<title>offy4&#45;&gt;NoMove_outputp4</title>
<path fill="none" stroke="red" stroke-width="0.28" stroke-dasharray="1,5" d="M1250.86,-156.12C1250.86,-149.93 1250.86,-140.74 1250.86,-130.46"/>
<polygon fill="red" stroke="red" stroke-width="0.28" points="1254.36,-130.35 1250.86,-120.35 1247.36,-130.35 1254.36,-130.35"/>
</g>
<!-- offy4&#45;&gt;EMove_outputp4 -->
<g id="edge43" class="edge">
<title>offy4&#45;&gt;EMove_outputp4</title>
<path fill="none" stroke="green" stroke-width="0.62" d="M1269.05,-164.02C1344.91,-163.02 1636,-156.8 1718.86,-120.21 1725.67,-117.2 1732.25,-113.19 1738.43,-108.67"/>
<polygon fill="green" stroke="green" stroke-width="0.62" points="1740.91,-111.17 1746.61,-102.24 1736.58,-105.67 1740.91,-111.17"/>
</g>
<!-- offy4&#45;&gt;NMove_outputp4 -->
<g id="edge29" class="edge">
<title>offy4&#45;&gt;NMove_outputp4</title>
<path fill="none" stroke="red" stroke-width="0.13" d="M1269.06,-163.46C1306.43,-161.28 1393.65,-152.81 1457.86,-120.21 1464.46,-116.86 1470.91,-112.68 1477.04,-108.1"/>
<polygon fill="red" stroke="red" stroke-width="0.13" points="1479.51,-110.6 1485.17,-101.65 1475.16,-105.12 1479.51,-110.6"/>
</g>
</g>
</svg>
