<?xml version="1.0" encoding="utf-8" standalone="no"?>
<!DOCTYPE svg PUBLIC "-//W3C//DTD SVG 1.1//EN"
  "http://www.w3.org/Graphics/SVG/1.1/DTD/svg11.dtd">
<!-- Created with matplotlib (https://matplotlib.org/) -->
<svg height="345.6pt" version="1.1" viewBox="0 0 460.8 345.6" width="460.8pt" xmlns="http://www.w3.org/2000/svg" xmlns:xlink="http://www.w3.org/1999/xlink">
 <defs>
  <style type="text/css">
*{stroke-linecap:butt;stroke-linejoin:round;}
  </style>
 </defs>
 <g id="figure_1">
  <g id="patch_1">
   <path d="M 0 345.6 
L 460.8 345.6 
L 460.8 0 
L 0 0 
z
" style="fill:#ffffff;"/>
  </g>
  <g id="axes_1">
   <g id="patch_2">
    <path d="M 57.6 307.584 
L 414.72 307.584 
L 414.72 41.472 
L 57.6 41.472 
z
" style="fill:#ffffff;"/>
   </g>
   <g id="matplotlib.axis_1">
    <g id="xtick_1">
     <g id="line2d_1">
      <path clip-path="url(#pddd6757137)" d="M 73.832727 307.584 
L 73.832727 41.472 
" style="fill:none;stroke:#b0b0b0;stroke-linecap:square;stroke-width:0.8;"/>
     </g>
     <g id="line2d_2">
      <defs>
       <path d="M 0 0 
L 0 3.5 
" id="m5612561b07" style="stroke:#000000;stroke-width:0.8;"/>
      </defs>
      <g>
       <use style="stroke:#000000;stroke-width:0.8;" x="73.832727" xlink:href="#m5612561b07" y="307.584"/>
      </g>
     </g>
     <g id="text_1">
      <!-- 0 -->
      <defs>
       <path d="M 31.78125 66.40625 
Q 24.171875 66.40625 20.328125 58.90625 
Q 16.5 51.421875 16.5 36.375 
Q 16.5 21.390625 20.328125 13.890625 
Q 24.171875 6.390625 31.78125 6.390625 
Q 39.453125 6.390625 43.28125 13.890625 
Q 47.125 21.390625 47.125 36.375 
Q 47.125 51.421875 43.28125 58.90625 
Q 39.453125 66.40625 31.78125 66.40625 
z
M 31.78125 74.21875 
Q 44.046875 74.21875 50.515625 64.515625 
Q 56.984375 54.828125 56.984375 36.375 
Q 56.984375 17.96875 50.515625 8.265625 
Q 44.046875 -1.421875 31.78125 -1.421875 
Q 19.53125 -1.421875 13.0625 8.265625 
Q 6.59375 17.96875 6.59375 36.375 
Q 6.59375 54.828125 13.0625 64.515625 
Q 19.53125 74.21875 31.78125 74.21875 
z
" id="DejaVuSans-48"/>
      </defs>
      <g transform="translate(70.651477 322.182437)scale(0.1 -0.1)">
       <use xlink:href="#DejaVuSans-48"/>
      </g>
     </g>
    </g>
    <g id="xtick_2">
     <g id="line2d_3">
      <path clip-path="url(#pddd6757137)" d="M 138.893758 307.584 
L 138.893758 41.472 
" style="fill:none;stroke:#b0b0b0;stroke-linecap:square;stroke-width:0.8;"/>
     </g>
     <g id="line2d_4">
      <g>
       <use style="stroke:#000000;stroke-width:0.8;" x="138.893758" xlink:href="#m5612561b07" y="307.584"/>
      </g>
     </g>
     <g id="text_2">
      <!-- 100 -->
      <defs>
       <path d="M 12.40625 8.296875 
L 28.515625 8.296875 
L 28.515625 63.921875 
L 10.984375 60.40625 
L 10.984375 69.390625 
L 28.421875 72.90625 
L 38.28125 72.90625 
L 38.28125 8.296875 
L 54.390625 8.296875 
L 54.390625 0 
L 12.40625 0 
z
" id="DejaVuSans-49"/>
      </defs>
      <g transform="translate(129.350008 322.182437)scale(0.1 -0.1)">
       <use xlink:href="#DejaVuSans-49"/>
       <use x="63.623047" xlink:href="#DejaVuSans-48"/>
       <use x="127.246094" xlink:href="#DejaVuSans-48"/>
      </g>
     </g>
    </g>
    <g id="xtick_3">
     <g id="line2d_5">
      <path clip-path="url(#pddd6757137)" d="M 203.95479 307.584 
L 203.95479 41.472 
" style="fill:none;stroke:#b0b0b0;stroke-linecap:square;stroke-width:0.8;"/>
     </g>
     <g id="line2d_6">
      <g>
       <use style="stroke:#000000;stroke-width:0.8;" x="203.95479" xlink:href="#m5612561b07" y="307.584"/>
      </g>
     </g>
     <g id="text_3">
      <!-- 200 -->
      <defs>
       <path d="M 19.1875 8.296875 
L 53.609375 8.296875 
L 53.609375 0 
L 7.328125 0 
L 7.328125 8.296875 
Q 12.9375 14.109375 22.625 23.890625 
Q 32.328125 33.6875 34.8125 36.53125 
Q 39.546875 41.84375 41.421875 45.53125 
Q 43.3125 49.21875 43.3125 52.78125 
Q 43.3125 58.59375 39.234375 62.25 
Q 35.15625 65.921875 28.609375 65.921875 
Q 23.96875 65.921875 18.8125 64.3125 
Q 13.671875 62.703125 7.8125 59.421875 
L 7.8125 69.390625 
Q 13.765625 71.78125 18.9375 73 
Q 24.125 74.21875 28.421875 74.21875 
Q 39.75 74.21875 46.484375 68.546875 
Q 53.21875 62.890625 53.21875 53.421875 
Q 53.21875 48.921875 51.53125 44.890625 
Q 49.859375 40.875 45.40625 35.40625 
Q 44.1875 33.984375 37.640625 27.21875 
Q 31.109375 20.453125 19.1875 8.296875 
z
" id="DejaVuSans-50"/>
      </defs>
      <g transform="translate(194.41104 322.182437)scale(0.1 -0.1)">
       <use xlink:href="#DejaVuSans-50"/>
       <use x="63.623047" xlink:href="#DejaVuSans-48"/>
       <use x="127.246094" xlink:href="#DejaVuSans-48"/>
      </g>
     </g>
    </g>
    <g id="xtick_4">
     <g id="line2d_7">
      <path clip-path="url(#pddd6757137)" d="M 269.015821 307.584 
L 269.015821 41.472 
" style="fill:none;stroke:#b0b0b0;stroke-linecap:square;stroke-width:0.8;"/>
     </g>
     <g id="line2d_8">
      <g>
       <use style="stroke:#000000;stroke-width:0.8;" x="269.015821" xlink:href="#m5612561b07" y="307.584"/>
      </g>
     </g>
     <g id="text_4">
      <!-- 300 -->
      <defs>
       <path d="M 40.578125 39.3125 
Q 47.65625 37.796875 51.625 33 
Q 55.609375 28.21875 55.609375 21.1875 
Q 55.609375 10.40625 48.1875 4.484375 
Q 40.765625 -1.421875 27.09375 -1.421875 
Q 22.515625 -1.421875 17.65625 -0.515625 
Q 12.796875 0.390625 7.625 2.203125 
L 7.625 11.71875 
Q 11.71875 9.328125 16.59375 8.109375 
Q 21.484375 6.890625 26.8125 6.890625 
Q 36.078125 6.890625 40.9375 10.546875 
Q 45.796875 14.203125 45.796875 21.1875 
Q 45.796875 27.640625 41.28125 31.265625 
Q 36.765625 34.90625 28.71875 34.90625 
L 20.21875 34.90625 
L 20.21875 43.015625 
L 29.109375 43.015625 
Q 36.375 43.015625 40.234375 45.921875 
Q 44.09375 48.828125 44.09375 54.296875 
Q 44.09375 59.90625 40.109375 62.90625 
Q 36.140625 65.921875 28.71875 65.921875 
Q 24.65625 65.921875 20.015625 65.03125 
Q 15.375 64.15625 9.8125 62.3125 
L 9.8125 71.09375 
Q 15.4375 72.65625 20.34375 73.4375 
Q 25.25 74.21875 29.59375 74.21875 
Q 40.828125 74.21875 47.359375 69.109375 
Q 53.90625 64.015625 53.90625 55.328125 
Q 53.90625 49.265625 50.4375 45.09375 
Q 46.96875 40.921875 40.578125 39.3125 
z
" id="DejaVuSans-51"/>
      </defs>
      <g transform="translate(259.472071 322.182437)scale(0.1 -0.1)">
       <use xlink:href="#DejaVuSans-51"/>
       <use x="63.623047" xlink:href="#DejaVuSans-48"/>
       <use x="127.246094" xlink:href="#DejaVuSans-48"/>
      </g>
     </g>
    </g>
    <g id="xtick_5">
     <g id="line2d_9">
      <path clip-path="url(#pddd6757137)" d="M 334.076852 307.584 
L 334.076852 41.472 
" style="fill:none;stroke:#b0b0b0;stroke-linecap:square;stroke-width:0.8;"/>
     </g>
     <g id="line2d_10">
      <g>
       <use style="stroke:#000000;stroke-width:0.8;" x="334.076852" xlink:href="#m5612561b07" y="307.584"/>
      </g>
     </g>
     <g id="text_5">
      <!-- 400 -->
      <defs>
       <path d="M 37.796875 64.3125 
L 12.890625 25.390625 
L 37.796875 25.390625 
z
M 35.203125 72.90625 
L 47.609375 72.90625 
L 47.609375 25.390625 
L 58.015625 25.390625 
L 58.015625 17.1875 
L 47.609375 17.1875 
L 47.609375 0 
L 37.796875 0 
L 37.796875 17.1875 
L 4.890625 17.1875 
L 4.890625 26.703125 
z
" id="DejaVuSans-52"/>
      </defs>
      <g transform="translate(324.533102 322.182437)scale(0.1 -0.1)">
       <use xlink:href="#DejaVuSans-52"/>
       <use x="63.623047" xlink:href="#DejaVuSans-48"/>
       <use x="127.246094" xlink:href="#DejaVuSans-48"/>
      </g>
     </g>
    </g>
    <g id="xtick_6">
     <g id="line2d_11">
      <path clip-path="url(#pddd6757137)" d="M 399.137883 307.584 
L 399.137883 41.472 
" style="fill:none;stroke:#b0b0b0;stroke-linecap:square;stroke-width:0.8;"/>
     </g>
     <g id="line2d_12">
      <g>
       <use style="stroke:#000000;stroke-width:0.8;" x="399.137883" xlink:href="#m5612561b07" y="307.584"/>
      </g>
     </g>
     <g id="text_6">
      <!-- 500 -->
      <defs>
       <path d="M 10.796875 72.90625 
L 49.515625 72.90625 
L 49.515625 64.59375 
L 19.828125 64.59375 
L 19.828125 46.734375 
Q 21.96875 47.46875 24.109375 47.828125 
Q 26.265625 48.1875 28.421875 48.1875 
Q 40.625 48.1875 47.75 41.5 
Q 54.890625 34.8125 54.890625 23.390625 
Q 54.890625 11.625 47.5625 5.09375 
Q 40.234375 -1.421875 26.90625 -1.421875 
Q 22.3125 -1.421875 17.546875 -0.640625 
Q 12.796875 0.140625 7.71875 1.703125 
L 7.71875 11.625 
Q 12.109375 9.234375 16.796875 8.0625 
Q 21.484375 6.890625 26.703125 6.890625 
Q 35.15625 6.890625 40.078125 11.328125 
Q 45.015625 15.765625 45.015625 23.390625 
Q 45.015625 31 40.078125 35.4375 
Q 35.15625 39.890625 26.703125 39.890625 
Q 22.75 39.890625 18.8125 39.015625 
Q 14.890625 38.140625 10.796875 36.28125 
z
" id="DejaVuSans-53"/>
      </defs>
      <g transform="translate(389.594133 322.182437)scale(0.1 -0.1)">
       <use xlink:href="#DejaVuSans-53"/>
       <use x="63.623047" xlink:href="#DejaVuSans-48"/>
       <use x="127.246094" xlink:href="#DejaVuSans-48"/>
      </g>
     </g>
    </g>
    <g id="text_7">
     <!-- Generations -->
     <defs>
      <path d="M 59.515625 10.40625 
L 59.515625 29.984375 
L 43.40625 29.984375 
L 43.40625 38.09375 
L 69.28125 38.09375 
L 69.28125 6.78125 
Q 63.578125 2.734375 56.6875 0.65625 
Q 49.8125 -1.421875 42 -1.421875 
Q 24.90625 -1.421875 15.25 8.5625 
Q 5.609375 18.5625 5.609375 36.375 
Q 5.609375 54.25 15.25 64.234375 
Q 24.90625 74.21875 42 74.21875 
Q 49.125 74.21875 55.546875 72.453125 
Q 61.96875 70.703125 67.390625 67.28125 
L 67.390625 56.78125 
Q 61.921875 61.421875 55.765625 63.765625 
Q 49.609375 66.109375 42.828125 66.109375 
Q 29.4375 66.109375 22.71875 58.640625 
Q 16.015625 51.171875 16.015625 36.375 
Q 16.015625 21.625 22.71875 14.15625 
Q 29.4375 6.6875 42.828125 6.6875 
Q 48.046875 6.6875 52.140625 7.59375 
Q 56.25 8.5 59.515625 10.40625 
z
" id="DejaVuSans-71"/>
      <path d="M 56.203125 29.59375 
L 56.203125 25.203125 
L 14.890625 25.203125 
Q 15.484375 15.921875 20.484375 11.0625 
Q 25.484375 6.203125 34.421875 6.203125 
Q 39.59375 6.203125 44.453125 7.46875 
Q 49.3125 8.734375 54.109375 11.28125 
L 54.109375 2.78125 
Q 49.265625 0.734375 44.1875 -0.34375 
Q 39.109375 -1.421875 33.890625 -1.421875 
Q 20.796875 -1.421875 13.15625 6.1875 
Q 5.515625 13.8125 5.515625 26.8125 
Q 5.515625 40.234375 12.765625 48.109375 
Q 20.015625 56 32.328125 56 
Q 43.359375 56 49.78125 48.890625 
Q 56.203125 41.796875 56.203125 29.59375 
z
M 47.21875 32.234375 
Q 47.125 39.59375 43.09375 43.984375 
Q 39.0625 48.390625 32.421875 48.390625 
Q 24.90625 48.390625 20.390625 44.140625 
Q 15.875 39.890625 15.1875 32.171875 
z
" id="DejaVuSans-101"/>
      <path d="M 54.890625 33.015625 
L 54.890625 0 
L 45.90625 0 
L 45.90625 32.71875 
Q 45.90625 40.484375 42.875 44.328125 
Q 39.84375 48.1875 33.796875 48.1875 
Q 26.515625 48.1875 22.3125 43.546875 
Q 18.109375 38.921875 18.109375 30.90625 
L 18.109375 0 
L 9.078125 0 
L 9.078125 54.6875 
L 18.109375 54.6875 
L 18.109375 46.1875 
Q 21.34375 51.125 25.703125 53.5625 
Q 30.078125 56 35.796875 56 
Q 45.21875 56 50.046875 50.171875 
Q 54.890625 44.34375 54.890625 33.015625 
z
" id="DejaVuSans-110"/>
      <path d="M 41.109375 46.296875 
Q 39.59375 47.171875 37.8125 47.578125 
Q 36.03125 48 33.890625 48 
Q 26.265625 48 22.1875 43.046875 
Q 18.109375 38.09375 18.109375 28.8125 
L 18.109375 0 
L 9.078125 0 
L 9.078125 54.6875 
L 18.109375 54.6875 
L 18.109375 46.1875 
Q 20.953125 51.171875 25.484375 53.578125 
Q 30.03125 56 36.53125 56 
Q 37.453125 56 38.578125 55.875 
Q 39.703125 55.765625 41.0625 55.515625 
z
" id="DejaVuSans-114"/>
      <path d="M 34.28125 27.484375 
Q 23.390625 27.484375 19.1875 25 
Q 14.984375 22.515625 14.984375 16.5 
Q 14.984375 11.71875 18.140625 8.90625 
Q 21.296875 6.109375 26.703125 6.109375 
Q 34.1875 6.109375 38.703125 11.40625 
Q 43.21875 16.703125 43.21875 25.484375 
L 43.21875 27.484375 
z
M 52.203125 31.203125 
L 52.203125 0 
L 43.21875 0 
L 43.21875 8.296875 
Q 40.140625 3.328125 35.546875 0.953125 
Q 30.953125 -1.421875 24.3125 -1.421875 
Q 15.921875 -1.421875 10.953125 3.296875 
Q 6 8.015625 6 15.921875 
Q 6 25.140625 12.171875 29.828125 
Q 18.359375 34.515625 30.609375 34.515625 
L 43.21875 34.515625 
L 43.21875 35.40625 
Q 43.21875 41.609375 39.140625 45 
Q 35.0625 48.390625 27.6875 48.390625 
Q 23 48.390625 18.546875 47.265625 
Q 14.109375 46.140625 10.015625 43.890625 
L 10.015625 52.203125 
Q 14.9375 54.109375 19.578125 55.046875 
Q 24.21875 56 28.609375 56 
Q 40.484375 56 46.34375 49.84375 
Q 52.203125 43.703125 52.203125 31.203125 
z
" id="DejaVuSans-97"/>
      <path d="M 18.3125 70.21875 
L 18.3125 54.6875 
L 36.8125 54.6875 
L 36.8125 47.703125 
L 18.3125 47.703125 
L 18.3125 18.015625 
Q 18.3125 11.328125 20.140625 9.421875 
Q 21.96875 7.515625 27.59375 7.515625 
L 36.8125 7.515625 
L 36.8125 0 
L 27.59375 0 
Q 17.1875 0 13.234375 3.875 
Q 9.28125 7.765625 9.28125 18.015625 
L 9.28125 47.703125 
L 2.6875 47.703125 
L 2.6875 54.6875 
L 9.28125 54.6875 
L 9.28125 70.21875 
z
" id="DejaVuSans-116"/>
      <path d="M 9.421875 54.6875 
L 18.40625 54.6875 
L 18.40625 0 
L 9.421875 0 
z
M 9.421875 75.984375 
L 18.40625 75.984375 
L 18.40625 64.59375 
L 9.421875 64.59375 
z
" id="DejaVuSans-105"/>
      <path d="M 30.609375 48.390625 
Q 23.390625 48.390625 19.1875 42.75 
Q 14.984375 37.109375 14.984375 27.296875 
Q 14.984375 17.484375 19.15625 11.84375 
Q 23.34375 6.203125 30.609375 6.203125 
Q 37.796875 6.203125 41.984375 11.859375 
Q 46.1875 17.53125 46.1875 27.296875 
Q 46.1875 37.015625 41.984375 42.703125 
Q 37.796875 48.390625 30.609375 48.390625 
z
M 30.609375 56 
Q 42.328125 56 49.015625 48.375 
Q 55.71875 40.765625 55.71875 27.296875 
Q 55.71875 13.875 49.015625 6.21875 
Q 42.328125 -1.421875 30.609375 -1.421875 
Q 18.84375 -1.421875 12.171875 6.21875 
Q 5.515625 13.875 5.515625 27.296875 
Q 5.515625 40.765625 12.171875 48.375 
Q 18.84375 56 30.609375 56 
z
" id="DejaVuSans-111"/>
      <path d="M 44.28125 53.078125 
L 44.28125 44.578125 
Q 40.484375 46.53125 36.375 47.5 
Q 32.28125 48.484375 27.875 48.484375 
Q 21.1875 48.484375 17.84375 46.4375 
Q 14.5 44.390625 14.5 40.28125 
Q 14.5 37.15625 16.890625 35.375 
Q 19.28125 33.59375 26.515625 31.984375 
L 29.59375 31.296875 
Q 39.15625 29.25 43.1875 25.515625 
Q 47.21875 21.78125 47.21875 15.09375 
Q 47.21875 7.46875 41.1875 3.015625 
Q 35.15625 -1.421875 24.609375 -1.421875 
Q 20.21875 -1.421875 15.453125 -0.5625 
Q 10.6875 0.296875 5.421875 2 
L 5.421875 11.28125 
Q 10.40625 8.6875 15.234375 7.390625 
Q 20.0625 6.109375 24.8125 6.109375 
Q 31.15625 6.109375 34.5625 8.28125 
Q 37.984375 10.453125 37.984375 14.40625 
Q 37.984375 18.0625 35.515625 20.015625 
Q 33.0625 21.96875 24.703125 23.78125 
L 21.578125 24.515625 
Q 13.234375 26.265625 9.515625 29.90625 
Q 5.8125 33.546875 5.8125 39.890625 
Q 5.8125 47.609375 11.28125 51.796875 
Q 16.75 56 26.8125 56 
Q 31.78125 56 36.171875 55.265625 
Q 40.578125 54.546875 44.28125 53.078125 
z
" id="DejaVuSans-115"/>
     </defs>
     <g transform="translate(205.662344 335.860562)scale(0.1 -0.1)">
      <use xlink:href="#DejaVuSans-71"/>
      <use x="77.490234" xlink:href="#DejaVuSans-101"/>
      <use x="139.013672" xlink:href="#DejaVuSans-110"/>
      <use x="202.392578" xlink:href="#DejaVuSans-101"/>
      <use x="263.916016" xlink:href="#DejaVuSans-114"/>
      <use x="305.029297" xlink:href="#DejaVuSans-97"/>
      <use x="366.308594" xlink:href="#DejaVuSans-116"/>
      <use x="405.517578" xlink:href="#DejaVuSans-105"/>
      <use x="433.300781" xlink:href="#DejaVuSans-111"/>
      <use x="494.482422" xlink:href="#DejaVuSans-110"/>
      <use x="557.861328" xlink:href="#DejaVuSans-115"/>
     </g>
    </g>
   </g>
   <g id="matplotlib.axis_2">
    <g id="ytick_1">
     <g id="line2d_13">
      <path clip-path="url(#pddd6757137)" d="M 57.6 293.170775 
L 414.72 293.170775 
" style="fill:none;stroke:#b0b0b0;stroke-linecap:square;stroke-width:0.8;"/>
     </g>
     <g id="line2d_14">
      <defs>
       <path d="M 0 0 
L -3.5 0 
" id="m2e6f37bba9" style="stroke:#000000;stroke-width:0.8;"/>
      </defs>
      <g>
       <use style="stroke:#000000;stroke-width:0.8;" x="57.6" xlink:href="#m2e6f37bba9" y="293.170775"/>
      </g>
     </g>
     <g id="text_8">
      <!-- 0.0 -->
      <defs>
       <path d="M 10.6875 12.40625 
L 21 12.40625 
L 21 0 
L 10.6875 0 
z
" id="DejaVuSans-46"/>
      </defs>
      <g transform="translate(34.696875 296.969994)scale(0.1 -0.1)">
       <use xlink:href="#DejaVuSans-48"/>
       <use x="63.623047" xlink:href="#DejaVuSans-46"/>
       <use x="95.410156" xlink:href="#DejaVuSans-48"/>
      </g>
     </g>
    </g>
    <g id="ytick_2">
     <g id="line2d_15">
      <path clip-path="url(#pddd6757137)" d="M 57.6 259.808334 
L 414.72 259.808334 
" style="fill:none;stroke:#b0b0b0;stroke-linecap:square;stroke-width:0.8;"/>
     </g>
     <g id="line2d_16">
      <g>
       <use style="stroke:#000000;stroke-width:0.8;" x="57.6" xlink:href="#m2e6f37bba9" y="259.808334"/>
      </g>
     </g>
     <g id="text_9">
      <!-- 0.2 -->
      <g transform="translate(34.696875 263.607553)scale(0.1 -0.1)">
       <use xlink:href="#DejaVuSans-48"/>
       <use x="63.623047" xlink:href="#DejaVuSans-46"/>
       <use x="95.410156" xlink:href="#DejaVuSans-50"/>
      </g>
     </g>
    </g>
    <g id="ytick_3">
     <g id="line2d_17">
      <path clip-path="url(#pddd6757137)" d="M 57.6 226.445892 
L 414.72 226.445892 
" style="fill:none;stroke:#b0b0b0;stroke-linecap:square;stroke-width:0.8;"/>
     </g>
     <g id="line2d_18">
      <g>
       <use style="stroke:#000000;stroke-width:0.8;" x="57.6" xlink:href="#m2e6f37bba9" y="226.445892"/>
      </g>
     </g>
     <g id="text_10">
      <!-- 0.4 -->
      <g transform="translate(34.696875 230.245111)scale(0.1 -0.1)">
       <use xlink:href="#DejaVuSans-48"/>
       <use x="63.623047" xlink:href="#DejaVuSans-46"/>
       <use x="95.410156" xlink:href="#DejaVuSans-52"/>
      </g>
     </g>
    </g>
    <g id="ytick_4">
     <g id="line2d_19">
      <path clip-path="url(#pddd6757137)" d="M 57.6 193.083451 
L 414.72 193.083451 
" style="fill:none;stroke:#b0b0b0;stroke-linecap:square;stroke-width:0.8;"/>
     </g>
     <g id="line2d_20">
      <g>
       <use style="stroke:#000000;stroke-width:0.8;" x="57.6" xlink:href="#m2e6f37bba9" y="193.083451"/>
      </g>
     </g>
     <g id="text_11">
      <!-- 0.6 -->
      <defs>
       <path d="M 33.015625 40.375 
Q 26.375 40.375 22.484375 35.828125 
Q 18.609375 31.296875 18.609375 23.390625 
Q 18.609375 15.53125 22.484375 10.953125 
Q 26.375 6.390625 33.015625 6.390625 
Q 39.65625 6.390625 43.53125 10.953125 
Q 47.40625 15.53125 47.40625 23.390625 
Q 47.40625 31.296875 43.53125 35.828125 
Q 39.65625 40.375 33.015625 40.375 
z
M 52.59375 71.296875 
L 52.59375 62.3125 
Q 48.875 64.0625 45.09375 64.984375 
Q 41.3125 65.921875 37.59375 65.921875 
Q 27.828125 65.921875 22.671875 59.328125 
Q 17.53125 52.734375 16.796875 39.40625 
Q 19.671875 43.65625 24.015625 45.921875 
Q 28.375 48.1875 33.59375 48.1875 
Q 44.578125 48.1875 50.953125 41.515625 
Q 57.328125 34.859375 57.328125 23.390625 
Q 57.328125 12.15625 50.6875 5.359375 
Q 44.046875 -1.421875 33.015625 -1.421875 
Q 20.359375 -1.421875 13.671875 8.265625 
Q 6.984375 17.96875 6.984375 36.375 
Q 6.984375 53.65625 15.1875 63.9375 
Q 23.390625 74.21875 37.203125 74.21875 
Q 40.921875 74.21875 44.703125 73.484375 
Q 48.484375 72.75 52.59375 71.296875 
z
" id="DejaVuSans-54"/>
      </defs>
      <g transform="translate(34.696875 196.882669)scale(0.1 -0.1)">
       <use xlink:href="#DejaVuSans-48"/>
       <use x="63.623047" xlink:href="#DejaVuSans-46"/>
       <use x="95.410156" xlink:href="#DejaVuSans-54"/>
      </g>
     </g>
    </g>
    <g id="ytick_5">
     <g id="line2d_21">
      <path clip-path="url(#pddd6757137)" d="M 57.6 159.721009 
L 414.72 159.721009 
" style="fill:none;stroke:#b0b0b0;stroke-linecap:square;stroke-width:0.8;"/>
     </g>
     <g id="line2d_22">
      <g>
       <use style="stroke:#000000;stroke-width:0.8;" x="57.6" xlink:href="#m2e6f37bba9" y="159.721009"/>
      </g>
     </g>
     <g id="text_12">
      <!-- 0.8 -->
      <defs>
       <path d="M 31.78125 34.625 
Q 24.75 34.625 20.71875 30.859375 
Q 16.703125 27.09375 16.703125 20.515625 
Q 16.703125 13.921875 20.71875 10.15625 
Q 24.75 6.390625 31.78125 6.390625 
Q 38.8125 6.390625 42.859375 10.171875 
Q 46.921875 13.96875 46.921875 20.515625 
Q 46.921875 27.09375 42.890625 30.859375 
Q 38.875 34.625 31.78125 34.625 
z
M 21.921875 38.8125 
Q 15.578125 40.375 12.03125 44.71875 
Q 8.5 49.078125 8.5 55.328125 
Q 8.5 64.0625 14.71875 69.140625 
Q 20.953125 74.21875 31.78125 74.21875 
Q 42.671875 74.21875 48.875 69.140625 
Q 55.078125 64.0625 55.078125 55.328125 
Q 55.078125 49.078125 51.53125 44.71875 
Q 48 40.375 41.703125 38.8125 
Q 48.828125 37.15625 52.796875 32.3125 
Q 56.78125 27.484375 56.78125 20.515625 
Q 56.78125 9.90625 50.3125 4.234375 
Q 43.84375 -1.421875 31.78125 -1.421875 
Q 19.734375 -1.421875 13.25 4.234375 
Q 6.78125 9.90625 6.78125 20.515625 
Q 6.78125 27.484375 10.78125 32.3125 
Q 14.796875 37.15625 21.921875 38.8125 
z
M 18.3125 54.390625 
Q 18.3125 48.734375 21.84375 45.5625 
Q 25.390625 42.390625 31.78125 42.390625 
Q 38.140625 42.390625 41.71875 45.5625 
Q 45.3125 48.734375 45.3125 54.390625 
Q 45.3125 60.0625 41.71875 63.234375 
Q 38.140625 66.40625 31.78125 66.40625 
Q 25.390625 66.40625 21.84375 63.234375 
Q 18.3125 60.0625 18.3125 54.390625 
z
" id="DejaVuSans-56"/>
      </defs>
      <g transform="translate(34.696875 163.520228)scale(0.1 -0.1)">
       <use xlink:href="#DejaVuSans-48"/>
       <use x="63.623047" xlink:href="#DejaVuSans-46"/>
       <use x="95.410156" xlink:href="#DejaVuSans-56"/>
      </g>
     </g>
    </g>
    <g id="ytick_6">
     <g id="line2d_23">
      <path clip-path="url(#pddd6757137)" d="M 57.6 126.358568 
L 414.72 126.358568 
" style="fill:none;stroke:#b0b0b0;stroke-linecap:square;stroke-width:0.8;"/>
     </g>
     <g id="line2d_24">
      <g>
       <use style="stroke:#000000;stroke-width:0.8;" x="57.6" xlink:href="#m2e6f37bba9" y="126.358568"/>
      </g>
     </g>
     <g id="text_13">
      <!-- 1.0 -->
      <g transform="translate(34.696875 130.157786)scale(0.1 -0.1)">
       <use xlink:href="#DejaVuSans-49"/>
       <use x="63.623047" xlink:href="#DejaVuSans-46"/>
       <use x="95.410156" xlink:href="#DejaVuSans-48"/>
      </g>
     </g>
    </g>
    <g id="ytick_7">
     <g id="line2d_25">
      <path clip-path="url(#pddd6757137)" d="M 57.6 92.996126 
L 414.72 92.996126 
" style="fill:none;stroke:#b0b0b0;stroke-linecap:square;stroke-width:0.8;"/>
     </g>
     <g id="line2d_26">
      <g>
       <use style="stroke:#000000;stroke-width:0.8;" x="57.6" xlink:href="#m2e6f37bba9" y="92.996126"/>
      </g>
     </g>
     <g id="text_14">
      <!-- 1.2 -->
      <g transform="translate(34.696875 96.795345)scale(0.1 -0.1)">
       <use xlink:href="#DejaVuSans-49"/>
       <use x="63.623047" xlink:href="#DejaVuSans-46"/>
       <use x="95.410156" xlink:href="#DejaVuSans-50"/>
      </g>
     </g>
    </g>
    <g id="ytick_8">
     <g id="line2d_27">
      <path clip-path="url(#pddd6757137)" d="M 57.6 59.633685 
L 414.72 59.633685 
" style="fill:none;stroke:#b0b0b0;stroke-linecap:square;stroke-width:0.8;"/>
     </g>
     <g id="line2d_28">
      <g>
       <use style="stroke:#000000;stroke-width:0.8;" x="57.6" xlink:href="#m2e6f37bba9" y="59.633685"/>
      </g>
     </g>
     <g id="text_15">
      <!-- 1.4 -->
      <g transform="translate(34.696875 63.432903)scale(0.1 -0.1)">
       <use xlink:href="#DejaVuSans-49"/>
       <use x="63.623047" xlink:href="#DejaVuSans-46"/>
       <use x="95.410156" xlink:href="#DejaVuSans-52"/>
      </g>
     </g>
    </g>
    <g id="text_16">
     <!-- Fitness -->
     <defs>
      <path d="M 9.8125 72.90625 
L 51.703125 72.90625 
L 51.703125 64.59375 
L 19.671875 64.59375 
L 19.671875 43.109375 
L 48.578125 43.109375 
L 48.578125 34.8125 
L 19.671875 34.8125 
L 19.671875 0 
L 9.8125 0 
z
" id="DejaVuSans-70"/>
     </defs>
     <g transform="translate(28.617187 192.202219)rotate(-90)scale(0.1 -0.1)">
      <use xlink:href="#DejaVuSans-70"/>
      <use x="57.410156" xlink:href="#DejaVuSans-105"/>
      <use x="85.193359" xlink:href="#DejaVuSans-116"/>
      <use x="124.402344" xlink:href="#DejaVuSans-110"/>
      <use x="187.78125" xlink:href="#DejaVuSans-101"/>
      <use x="249.304688" xlink:href="#DejaVuSans-115"/>
      <use x="301.404297" xlink:href="#DejaVuSans-115"/>
     </g>
    </g>
   </g>
   <g id="line2d_29">
    <path clip-path="url(#pddd6757137)" d="M 73.832727 237.94986 
L 74.483338 244.539836 
L 75.133948 242.919788 
L 75.784558 243.843147 
L 77.085779 235.258546 
L 77.736389 234.737555 
L 78.386999 233.92444 
L 79.03761 234.323369 
L 79.68822 235.837244 
L 80.33883 239.737196 
L 80.989441 234.965618 
L 81.640051 237.352765 
L 82.290661 239.31212 
L 82.941272 235.976875 
L 83.591882 238.124048 
L 84.242492 235.580365 
L 84.893103 236.225659 
L 85.543713 240.76471 
L 86.194323 235.442096 
L 86.844934 239.75888 
L 87.495544 239.712683 
L 88.146154 234.546662 
L 88.796764 234.693766 
L 89.447375 237.096322 
L 90.097985 231.12127 
L 90.748595 232.992047 
L 91.399206 236.23075 
L 92.049816 233.124917 
L 92.700426 232.341015 
L 93.351037 233.085478 
L 94.001647 231.034588 
L 94.652257 231.492471 
L 95.302868 238.031987 
L 95.953478 234.623865 
L 97.254698 232.852828 
L 97.905309 233.242924 
L 98.555919 231.618069 
L 99.206529 234.247794 
L 99.85714 232.670754 
L 100.50775 236.773512 
L 101.15836 234.799858 
L 101.808971 238.38538 
L 102.459581 236.95921 
L 103.110191 241.518071 
L 103.760802 241.756759 
L 104.411412 237.910995 
L 105.062022 245.181206 
L 105.712633 241.136474 
L 107.013853 243.310632 
L 107.664463 235.252421 
L 108.315074 235.025098 
L 108.965684 235.429208 
L 109.616294 231.088011 
L 110.266905 235.698187 
L 110.917515 237.679454 
L 111.568125 237.154338 
L 112.218736 240.743999 
L 113.519956 236.677587 
L 114.170567 237.206366 
L 114.821177 234.061835 
L 115.471787 240.579637 
L 116.122398 240.946159 
L 116.773008 245.006928 
L 117.423618 242.169179 
L 118.074228 237.838651 
L 118.724839 238.354392 
L 119.375449 238.089461 
L 120.026059 238.516969 
L 120.67667 237.016141 
L 121.32728 235.819981 
L 121.97789 237.40601 
L 122.628501 240.4843 
L 123.279111 238.337209 
L 123.929721 237.223487 
L 124.580332 234.189747 
L 125.230942 233.055406 
L 125.881552 233.206926 
L 126.532163 239.403944 
L 127.182773 236.176152 
L 127.833383 236.568932 
L 128.483993 245.814903 
L 129.134604 245.146931 
L 129.785214 244.789583 
L 130.435824 246.736145 
L 131.086435 247.651243 
L 131.737045 244.120252 
L 132.387655 242.252133 
L 133.038266 238.010459 
L 133.688876 236.73368 
L 134.339486 238.955175 
L 134.990097 238.640869 
L 135.640707 234.980309 
L 136.291317 235.887846 
L 136.941927 236.375706 
L 137.592538 239.829568 
L 138.893758 232.357209 
L 139.544369 233.989245 
L 140.194979 238.121933 
L 140.845589 235.803687 
L 141.4962 236.245602 
L 142.14681 233.610473 
L 142.79742 237.817094 
L 143.448031 240.238798 
L 144.098641 238.041136 
L 144.749251 236.811482 
L 145.399862 238.363912 
L 146.050472 236.269791 
L 146.701082 240.488269 
L 147.351692 237.54558 
L 148.002303 238.664468 
L 148.652913 236.358069 
L 149.303523 230.962016 
L 149.954134 239.105254 
L 150.604744 238.027741 
L 151.255354 239.960856 
L 151.905965 236.130935 
L 152.556575 235.183037 
L 153.207185 232.263676 
L 153.857796 238.158721 
L 154.508406 233.290139 
L 155.159016 237.057867 
L 155.809627 233.319339 
L 156.460237 232.341126 
L 157.110847 234.637627 
L 157.761457 232.545394 
L 158.412068 228.629353 
L 159.713288 232.258381 
L 160.363899 230.849934 
L 161.014509 234.682287 
L 161.665119 228.304501 
L 162.31573 231.564371 
L 162.96634 231.823975 
L 163.61695 227.740216 
L 164.267561 230.528839 
L 164.918171 232.444479 
L 165.568781 231.533726 
L 166.219392 230.22521 
L 166.870002 231.432188 
L 167.520612 231.126347 
L 168.171222 225.251961 
L 168.821833 224.695547 
L 169.472443 225.064026 
L 170.123053 226.520213 
L 170.773664 223.188436 
L 172.074884 226.829996 
L 172.725495 225.219981 
L 173.376105 226.077245 
L 174.026715 225.521735 
L 174.677326 226.222505 
L 175.327936 225.558348 
L 176.629156 230.811313 
L 177.279767 227.158572 
L 177.930377 227.944842 
L 178.580987 225.194407 
L 179.231598 224.250293 
L 179.882208 226.388153 
L 180.532818 223.442122 
L 181.183429 222.735457 
L 181.834039 224.651174 
L 182.484649 227.03611 
L 183.13526 226.144681 
L 183.78587 227.808765 
L 184.43648 226.226331 
L 185.087091 226.463504 
L 185.737701 225.686952 
L 186.388311 225.97997 
L 187.038921 225.947564 
L 187.689532 222.434365 
L 188.340142 227.822634 
L 188.990752 221.886756 
L 189.641363 224.777751 
L 190.291973 224.531844 
L 190.942583 223.826387 
L 191.593194 230.346668 
L 192.243804 222.389433 
L 192.894414 224.085372 
L 193.545025 226.427815 
L 194.195635 223.501454 
L 194.846245 222.329143 
L 195.496856 219.688256 
L 196.147466 221.705685 
L 196.798076 221.868384 
L 197.448686 222.707639 
L 198.099297 220.760937 
L 198.749907 221.146926 
L 199.400517 226.123568 
L 200.051128 226.261087 
L 200.701738 226.084004 
L 201.352348 223.052509 
L 202.653569 232.732955 
L 203.304179 230.240456 
L 203.95479 231.012035 
L 204.6054 231.240529 
L 205.25601 231.314628 
L 206.557231 237.701422 
L 207.207841 235.577188 
L 207.858451 235.272721 
L 208.509062 235.957667 
L 209.159672 234.265322 
L 209.810282 231.716849 
L 210.460893 233.296694 
L 211.111503 233.178158 
L 211.762113 233.709562 
L 213.063334 240.304672 
L 213.713944 238.227096 
L 214.364555 239.700803 
L 215.015165 234.525184 
L 215.665775 237.831745 
L 216.316385 236.533449 
L 216.966996 235.779156 
L 217.617606 238.801881 
L 218.268216 235.475416 
L 218.918827 235.886336 
L 219.569437 236.038764 
L 220.220047 231.401005 
L 220.870658 233.225373 
L 221.521268 229.373961 
L 222.171878 229.346238 
L 222.822489 230.917029 
L 223.473099 235.203602 
L 224.123709 231.435374 
L 224.77432 231.657895 
L 225.42493 239.701848 
L 226.07554 234.760087 
L 227.376761 228.52887 
L 228.027371 229.081248 
L 228.677981 228.063992 
L 229.328592 231.010355 
L 229.979202 228.332674 
L 230.629812 229.087188 
L 231.931033 231.766793 
L 233.232254 225.015209 
L 233.882864 225.218584 
L 234.533474 227.785266 
L 235.184085 225.962956 
L 235.834695 227.89155 
L 236.485305 223.392433 
L 237.135915 229.81756 
L 237.786526 224.388549 
L 238.437136 228.232921 
L 239.087746 226.032574 
L 239.738357 225.28924 
L 240.388967 225.736431 
L 241.039577 223.576218 
L 241.690188 230.033676 
L 242.340798 230.382404 
L 242.991408 232.920383 
L 243.642019 232.719717 
L 244.292629 228.49256 
L 244.943239 230.520765 
L 245.59385 227.295289 
L 246.24446 231.713604 
L 246.89507 234.144479 
L 247.54568 239.284335 
L 248.196291 229.805931 
L 248.846901 227.266496 
L 249.497511 227.183361 
L 250.798732 234.420131 
L 251.449342 231.944584 
L 252.099953 233.118512 
L 252.750563 232.390234 
L 253.401173 230.855617 
L 254.051784 235.200679 
L 254.702394 232.056692 
L 255.353004 237.326801 
L 256.003615 236.435159 
L 256.654225 239.702093 
L 257.304835 233.596613 
L 257.955445 235.725754 
L 258.606056 233.716247 
L 259.907276 233.163571 
L 260.557887 232.819747 
L 261.208497 229.361994 
L 261.859107 232.678728 
L 262.509718 232.506744 
L 263.160328 235.670872 
L 263.810938 235.137141 
L 264.461549 230.037409 
L 265.112159 229.244576 
L 265.762769 229.435333 
L 266.413379 231.699361 
L 267.06399 226.983166 
L 267.7146 226.067896 
L 268.36521 227.775815 
L 269.015821 230.283942 
L 269.666431 234.346784 
L 270.317041 229.827506 
L 270.967652 228.174023 
L 271.618262 226.995758 
L 272.268872 230.897839 
L 272.919483 233.521155 
L 273.570093 230.856223 
L 274.220703 232.557886 
L 274.871314 227.067021 
L 275.521924 230.258294 
L 276.172534 229.913173 
L 276.823144 233.604352 
L 277.473755 225.984924 
L 278.124365 226.194845 
L 278.774975 228.789546 
L 279.425586 224.146876 
L 280.076196 229.870607 
L 280.726806 227.004568 
L 281.377417 226.239781 
L 282.028027 224.822651 
L 282.678637 225.020252 
L 283.329248 223.291588 
L 283.979858 225.854491 
L 284.630468 220.371939 
L 285.281079 223.652905 
L 285.931689 230.090328 
L 286.582299 232.066626 
L 287.232909 233.334479 
L 287.88352 226.28996 
L 288.53413 232.310617 
L 289.18474 226.243848 
L 289.835351 227.492356 
L 290.485961 234.736065 
L 291.136571 233.134587 
L 291.787182 233.979562 
L 292.437792 230.337361 
L 293.088402 224.750311 
L 293.739013 227.782285 
L 294.389623 234.812524 
L 295.690844 227.209111 
L 296.341454 223.487172 
L 296.992064 225.002342 
L 297.642674 225.722533 
L 298.293285 224.089555 
L 298.943895 230.570177 
L 299.594505 233.78427 
L 300.245116 234.449277 
L 300.895726 234.122593 
L 301.546336 231.437693 
L 302.196947 238.980558 
L 302.847557 230.436366 
L 303.498167 235.614644 
L 304.148778 230.303645 
L 304.799388 229.680656 
L 305.449998 232.759377 
L 306.100608 231.747862 
L 306.751219 233.518617 
L 307.401829 232.801751 
L 308.052439 234.127254 
L 308.70305 233.634278 
L 310.654881 228.754156 
L 311.305491 229.945685 
L 311.956101 226.670874 
L 312.606712 227.521965 
L 313.257322 232.679807 
L 313.907932 231.79523 
L 314.558543 229.91596 
L 315.209153 229.882734 
L 315.859763 231.46544 
L 316.510373 235.630611 
L 317.160984 231.841642 
L 317.811594 235.442308 
L 318.462204 234.251568 
L 319.112815 233.509822 
L 319.763425 232.389192 
L 321.064646 237.421014 
L 321.715256 229.473159 
L 322.365866 233.821518 
L 323.016477 234.75956 
L 324.317697 236.069125 
L 324.968308 235.667401 
L 326.269528 236.314145 
L 326.920138 238.466464 
L 327.570749 236.817539 
L 328.221359 233.311209 
L 329.52258 237.361841 
L 330.17319 231.577547 
L 330.8238 235.562753 
L 331.474411 232.891293 
L 332.125021 231.941824 
L 332.775631 232.683575 
L 333.426242 233.219811 
L 334.076852 230.339798 
L 334.727462 228.705339 
L 335.378073 231.563517 
L 336.028683 231.711926 
L 336.679293 226.475037 
L 337.329903 231.021876 
L 337.980514 227.797271 
L 338.631124 230.278544 
L 339.281734 221.217252 
L 339.932345 224.317608 
L 340.582955 224.862092 
L 341.233565 222.993449 
L 341.884176 224.761539 
L 342.534786 229.506407 
L 343.185396 226.129632 
L 343.836007 230.258015 
L 344.486617 225.743001 
L 345.137227 225.988578 
L 345.787837 226.050728 
L 346.438448 226.541965 
L 347.089058 223.733963 
L 348.390279 224.582169 
L 349.040889 227.404696 
L 349.691499 225.482887 
L 350.34211 223.93571 
L 350.99272 225.819862 
L 351.64333 228.110646 
L 352.293941 224.97811 
L 352.944551 228.016495 
L 353.595161 230.475739 
L 354.245772 229.197607 
L 354.896382 227.628772 
L 355.546992 227.084656 
L 356.197602 219.550711 
L 356.848213 223.661216 
L 357.498823 222.260505 
L 358.149433 225.743957 
L 358.800044 226.122757 
L 359.450654 228.479455 
L 360.101264 219.678378 
L 360.751875 223.717176 
L 361.402485 223.940052 
L 362.053095 223.717357 
L 362.703706 228.932087 
L 363.354316 229.383858 
L 364.004926 233.194997 
L 364.655537 227.662342 
L 365.956757 221.570286 
L 366.607367 226.957145 
L 367.257978 227.02692 
L 367.908588 230.012539 
L 368.559198 227.99697 
L 369.209809 224.852722 
L 369.860419 226.323374 
L 370.511029 230.08396 
L 371.16164 228.671355 
L 371.81225 225.630029 
L 372.46286 225.183552 
L 373.113471 225.336386 
L 373.764081 225.679949 
L 374.414691 227.948649 
L 375.065302 226.96259 
L 375.715912 226.83282 
L 376.366522 227.452759 
L 377.017132 232.268355 
L 377.667743 228.995588 
L 378.318353 222.068167 
L 378.968963 226.897349 
L 379.619574 230.002315 
L 380.270184 223.086115 
L 380.920794 227.770349 
L 381.571405 225.777593 
L 382.222015 226.71116 
L 382.872625 230.203228 
L 383.523236 227.116112 
L 384.173846 226.860074 
L 384.824456 229.154518 
L 385.475066 226.314468 
L 386.125677 224.439441 
L 386.776287 225.224226 
L 387.426897 225.525546 
L 388.077508 225.640272 
L 388.728118 224.3091 
L 389.378728 222.469663 
L 390.029339 227.028822 
L 390.679949 224.570181 
L 391.330559 227.158796 
L 391.98117 228.411575 
L 392.63178 226.678805 
L 393.28239 231.224214 
L 393.933001 228.172731 
L 394.583611 228.027658 
L 395.234221 219.0356 
L 395.884831 223.18339 
L 396.535442 221.36951 
L 397.186052 220.059913 
L 397.836662 225.34584 
L 398.487273 224.317337 
L 398.487273 224.317337 
" style="fill:none;stroke:#0000ff;stroke-linecap:square;stroke-width:1.5;"/>
   </g>
   <g id="line2d_30">
    <path clip-path="url(#pddd6757137)" d="M 73.832727 295.488 
L 74.483338 294.339123 
L 75.133948 287.020107 
L 75.784558 288.793282 
L 76.435169 284.663572 
L 77.085779 281.344913 
L 77.736389 281.674583 
L 78.386999 277.683081 
L 79.68822 281.775876 
L 80.33883 284.472624 
L 80.989441 281.529375 
L 81.640051 282.37839 
L 82.290661 285.746203 
L 82.941272 282.639235 
L 83.591882 284.741787 
L 84.242492 281.286293 
L 84.893103 281.566176 
L 85.543713 285.335475 
L 86.194323 282.327934 
L 86.844934 284.691388 
L 87.495544 286.143655 
L 88.146154 282.500998 
L 88.796764 281.049894 
L 89.447375 284.316694 
L 90.097985 278.763029 
L 90.748595 279.3693 
L 91.399206 282.026847 
L 92.049816 280.501995 
L 92.700426 281.039915 
L 93.351037 281.090365 
L 94.001647 278.946839 
L 94.652257 278.760596 
L 95.302868 284.312242 
L 95.953478 282.58496 
L 96.604088 279.5674 
L 97.254698 279.225037 
L 97.905309 280.921721 
L 98.555919 278.887836 
L 99.206529 280.042614 
L 99.85714 279.929997 
L 100.50775 281.628812 
L 101.15836 280.817209 
L 101.808971 284.949907 
L 102.459581 283.869973 
L 103.110191 287.054025 
L 103.760802 287.442461 
L 104.411412 282.128336 
L 105.062022 290.400343 
L 105.712633 286.831995 
L 106.363243 287.361038 
L 107.013853 289.713311 
L 107.664463 283.596383 
L 108.315074 281.601674 
L 108.965684 283.676356 
L 109.616294 278.588671 
L 110.266905 282.465532 
L 110.917515 283.644034 
L 111.568125 282.405727 
L 112.218736 286.540042 
L 112.869346 285.779498 
L 113.519956 284.81172 
L 114.170567 284.597079 
L 114.821177 281.123569 
L 115.471787 285.016696 
L 116.773008 290.854508 
L 117.423618 288.147839 
L 118.074228 284.598072 
L 118.724839 285.348622 
L 119.375449 283.821213 
L 120.026059 286.623388 
L 120.67667 285.283924 
L 121.32728 283.349741 
L 122.628501 286.106518 
L 123.279111 284.235215 
L 123.929721 284.436651 
L 125.230942 280.815759 
L 125.881552 280.90594 
L 126.532163 285.205707 
L 127.182773 283.982753 
L 127.833383 285.192968 
L 128.483993 290.050659 
L 129.134604 289.722993 
L 129.785214 289.596453 
L 130.435824 290.76619 
L 131.086435 292.899008 
L 131.737045 289.150225 
L 132.387655 288.650122 
L 133.038266 284.344049 
L 133.688876 283.492038 
L 134.339486 285.163297 
L 134.990097 286.215761 
L 135.640707 282.097653 
L 136.291317 284.022794 
L 136.941927 283.912072 
L 137.592538 286.832753 
L 138.243148 282.503031 
L 138.893758 280.435186 
L 139.544369 282.026176 
L 140.194979 285.795404 
L 140.845589 282.801173 
L 141.4962 282.849848 
L 142.14681 280.895365 
L 142.79742 283.557773 
L 143.448031 286.745865 
L 144.098641 283.660218 
L 144.749251 282.092217 
L 145.399862 283.496219 
L 146.050472 283.025242 
L 146.701082 285.014102 
L 147.351692 285.195978 
L 148.002303 285.897984 
L 148.652913 283.42377 
L 149.303523 278.276492 
L 149.954134 285.621506 
L 150.604744 282.133868 
L 151.255354 286.350905 
L 151.905965 284.197395 
L 152.556575 282.679087 
L 153.207185 279.82478 
L 153.857796 285.208019 
L 154.508406 279.252748 
L 155.159016 282.882509 
L 155.809627 279.379537 
L 157.110847 281.853085 
L 157.761457 278.347814 
L 158.412068 276.455565 
L 159.062678 276.9721 
L 159.713288 279.038532 
L 160.363899 278.072317 
L 161.014509 282.885297 
L 161.665119 276.167217 
L 162.31573 280.085742 
L 162.96634 279.039374 
L 163.61695 276.936402 
L 164.267561 278.4029 
L 164.918171 281.190343 
L 165.568781 278.268797 
L 166.219392 277.51025 
L 166.870002 278.414079 
L 167.520612 280.175113 
L 168.171222 275.256612 
L 168.821833 272.84191 
L 169.472443 270.98587 
L 170.123053 273.864552 
L 170.773664 271.116734 
L 171.424274 273.698175 
L 172.074884 276.981991 
L 172.725495 274.422941 
L 173.376105 275.804874 
L 174.026715 275.842843 
L 174.677326 276.695986 
L 175.327936 275.772182 
L 175.978546 277.803766 
L 176.629156 277.738631 
L 177.279767 274.25351 
L 177.930377 276.331485 
L 178.580987 273.862443 
L 179.231598 270.878593 
L 179.882208 273.219583 
L 180.532818 273.878308 
L 181.183429 270.849316 
L 181.834039 274.424521 
L 182.484649 274.143215 
L 183.13526 275.07595 
L 183.78587 276.421092 
L 184.43648 274.833922 
L 185.087091 273.964761 
L 185.737701 275.398612 
L 186.388311 276.299084 
L 187.038921 276.200991 
L 187.689532 271.744215 
L 188.340142 275.648263 
L 188.990752 270.678801 
L 190.291973 273.670244 
L 190.942583 271.618967 
L 191.593194 278.696574 
L 192.243804 270.733282 
L 193.545025 274.933745 
L 194.195635 272.163518 
L 194.846245 271.502099 
L 195.496856 268.848793 
L 196.147466 271.71735 
L 196.798076 270.392887 
L 197.448686 273.488938 
L 198.099297 270.464453 
L 198.749907 272.864541 
L 199.400517 274.160029 
L 200.051128 276.082012 
L 201.352348 273.657413 
L 202.002959 276.695746 
L 202.653569 281.071423 
L 203.304179 279.229363 
L 203.95479 279.582287 
L 204.6054 280.88721 
L 205.25601 278.067045 
L 205.906621 279.037132 
L 206.557231 282.44451 
L 207.207841 281.272075 
L 207.858451 280.903647 
L 208.509062 281.184454 
L 209.159672 279.576338 
L 209.810282 276.825381 
L 210.460893 279.436964 
L 211.111503 280.105357 
L 211.762113 279.01276 
L 212.412724 282.380504 
L 213.063334 284.863357 
L 213.713944 281.476614 
L 214.364555 282.893 
L 215.015165 279.958638 
L 215.665775 283.812722 
L 216.316385 283.41444 
L 216.966996 281.127287 
L 217.617606 283.917938 
L 218.268216 281.90553 
L 219.569437 280.853175 
L 220.220047 276.93586 
L 220.870658 279.781853 
L 221.521268 275.305591 
L 222.171878 275.066384 
L 223.473099 280.678597 
L 224.123709 278.241713 
L 224.77432 277.363453 
L 225.42493 285.570264 
L 226.07554 280.714996 
L 226.72615 278.268719 
L 227.376761 275.003298 
L 228.027371 277.098174 
L 228.677981 275.416406 
L 229.328592 280.298376 
L 229.979202 275.69991 
L 231.280423 277.610909 
L 231.931033 279.655598 
L 232.581643 275.470091 
L 233.232254 273.327429 
L 233.882864 271.882277 
L 234.533474 273.72971 
L 235.184085 273.860384 
L 235.834695 277.33081 
L 236.485305 270.822455 
L 237.135915 275.401778 
L 237.786526 272.886643 
L 238.437136 275.477844 
L 239.087746 275.768036 
L 239.738357 272.749972 
L 240.388967 272.441052 
L 241.039577 271.662806 
L 241.690188 276.445881 
L 242.340798 280.108664 
L 242.991408 279.70502 
L 243.642019 280.046173 
L 244.292629 274.979386 
L 244.943239 278.343832 
L 245.59385 274.490197 
L 246.24446 278.033614 
L 246.89507 279.861836 
L 247.54568 282.583552 
L 248.196291 275.816407 
L 248.846901 273.615843 
L 249.497511 273.589378 
L 250.148122 277.604441 
L 250.798732 279.916279 
L 251.449342 275.255381 
L 252.750563 278.597826 
L 253.401173 275.456957 
L 254.051784 277.425156 
L 254.702394 278.310652 
L 255.353004 280.273373 
L 256.003615 281.776789 
L 256.654225 284.378564 
L 257.304835 278.41097 
L 257.955445 280.700889 
L 258.606056 279.918563 
L 259.256666 279.446585 
L 259.907276 280.377223 
L 260.557887 277.490703 
L 261.208497 275.346637 
L 261.859107 278.810421 
L 262.509718 278.111432 
L 263.160328 280.348238 
L 263.810938 278.95975 
L 265.112159 274.928945 
L 265.762769 276.14402 
L 266.413379 278.570505 
L 267.06399 275.091072 
L 267.7146 274.429504 
L 268.36521 275.585002 
L 269.015821 277.298808 
L 269.666431 280.86525 
L 270.317041 275.97717 
L 270.967652 275.318777 
L 271.618262 272.958819 
L 272.268872 277.305525 
L 272.919483 278.596297 
L 273.570093 277.216979 
L 274.220703 282.687839 
L 274.871314 275.06889 
L 275.521924 280.199721 
L 276.172534 278.388769 
L 276.823144 283.563195 
L 277.473755 273.28104 
L 278.124365 275.47471 
L 278.774975 277.246767 
L 279.425586 272.415562 
L 280.076196 278.202877 
L 280.726806 273.762056 
L 281.377417 275.961269 
L 282.028027 272.136421 
L 282.678637 275.533398 
L 283.329248 272.570043 
L 283.979858 276.186811 
L 284.630468 268.159232 
L 285.931689 278.507324 
L 286.582299 282.026293 
L 287.232909 283.02746 
L 287.88352 277.198199 
L 288.53413 280.552745 
L 289.18474 275.448368 
L 289.835351 277.92699 
L 290.485961 283.862041 
L 291.136571 280.998664 
L 291.787182 280.495126 
L 292.437792 276.679067 
L 293.088402 271.758475 
L 293.739013 274.454079 
L 294.389623 281.207895 
L 295.040233 277.538617 
L 296.341454 271.546679 
L 296.992064 271.863903 
L 297.642674 271.439733 
L 298.293285 272.834373 
L 298.943895 275.18423 
L 299.594505 279.200032 
L 300.895726 281.170608 
L 301.546336 278.209265 
L 302.196947 283.342834 
L 302.847557 275.062443 
L 303.498167 279.29252 
L 304.148778 276.478348 
L 304.799388 275.494457 
L 305.449998 275.940964 
L 306.100608 277.288498 
L 306.751219 278.012396 
L 307.401829 279.496931 
L 308.052439 279.551639 
L 308.70305 278.333549 
L 309.35366 277.949242 
L 310.00427 277.381591 
L 310.654881 275.563542 
L 311.305491 277.478988 
L 311.956101 275.21144 
L 312.606712 272.138228 
L 313.257322 279.667512 
L 313.907932 277.863048 
L 314.558543 277.960869 
L 315.209153 275.545333 
L 315.859763 276.582955 
L 316.510373 280.008958 
L 317.160984 277.739467 
L 317.811594 280.246014 
L 318.462204 280.589982 
L 319.112815 280.786208 
L 319.763425 280.350134 
L 320.414035 282.964477 
L 321.064646 282.758341 
L 321.715256 276.328357 
L 322.365866 280.44566 
L 323.016477 281.408522 
L 323.667087 280.627605 
L 324.317697 282.224404 
L 324.968308 282.117498 
L 325.618918 281.739996 
L 326.269528 283.170477 
L 326.920138 285.44644 
L 327.570749 280.855938 
L 328.221359 278.226975 
L 328.871969 279.424882 
L 329.52258 284.172385 
L 330.17319 279.143793 
L 330.8238 280.805094 
L 331.474411 277.496169 
L 332.125021 278.100429 
L 332.775631 280.055777 
L 334.727462 274.502741 
L 335.378073 279.656614 
L 336.028683 277.328092 
L 336.679293 271.962437 
L 337.329903 277.021057 
L 337.980514 274.222066 
L 338.631124 276.418187 
L 339.281734 267.221509 
L 339.932345 270.674967 
L 340.582955 271.793187 
L 341.233565 271.397776 
L 341.884176 272.693242 
L 342.534786 277.685643 
L 343.185396 273.848167 
L 343.836007 279.225563 
L 344.486617 274.367539 
L 345.137227 276.460256 
L 345.787837 274.999513 
L 346.438448 276.448643 
L 347.089058 273.689618 
L 347.739668 274.567502 
L 348.390279 272.018078 
L 349.040889 275.774254 
L 349.691499 275.180526 
L 350.34211 273.87826 
L 350.99272 275.403871 
L 351.64333 276.017913 
L 352.944551 273.96808 
L 353.595161 278.731926 
L 354.245772 277.792467 
L 354.896382 276.466633 
L 355.546992 274.881433 
L 356.197602 267.409251 
L 356.848213 271.763723 
L 357.498823 269.837846 
L 358.149433 273.527596 
L 358.800044 274.219881 
L 359.450654 277.450079 
L 360.101264 268.425466 
L 360.751875 269.997171 
L 361.402485 270.381051 
L 362.053095 271.340604 
L 362.703706 276.17032 
L 363.354316 277.361685 
L 364.004926 279.455891 
L 364.655537 276.206049 
L 365.306147 271.7035 
L 365.956757 270.155966 
L 366.607367 275.907848 
L 367.257978 274.219737 
L 367.908588 277.002532 
L 368.559198 273.416927 
L 369.209809 273.708538 
L 369.860419 271.808114 
L 370.511029 277.988476 
L 371.16164 276.787177 
L 371.81225 273.063602 
L 372.46286 273.577559 
L 373.113471 274.741863 
L 373.764081 273.61213 
L 374.414691 276.836826 
L 375.065302 273.606285 
L 375.715912 274.504473 
L 376.366522 273.652409 
L 377.017132 280.002363 
L 377.667743 275.373676 
L 378.318353 269.619378 
L 378.968963 275.04625 
L 379.619574 277.069375 
L 380.270184 270.005201 
L 380.920794 274.413855 
L 381.571405 275.54196 
L 382.222015 274.744038 
L 382.872625 278.395418 
L 383.523236 277.532047 
L 384.173846 275.246149 
L 384.824456 277.588169 
L 385.475066 275.330293 
L 386.125677 271.915859 
L 386.776287 273.584083 
L 387.426897 272.677785 
L 388.077508 274.468662 
L 388.728118 272.51251 
L 389.378728 269.263003 
L 390.029339 275.981012 
L 390.679949 273.271384 
L 391.330559 276.161269 
L 391.98117 277.090091 
L 392.63178 276.610604 
L 393.28239 278.57679 
L 393.933001 277.198521 
L 394.583611 276.524752 
L 395.234221 267.165298 
L 395.884831 271.588478 
L 396.535442 270.97937 
L 397.186052 267.020788 
L 397.836662 274.443624 
L 398.487273 273.277957 
L 398.487273 273.277957 
" style="fill:none;stroke:#008000;stroke-dasharray:9.6,2.4,1.5,2.4;stroke-dashoffset:0;stroke-width:1.5;"/>
   </g>
   <g id="line2d_31">
    <path clip-path="url(#pddd6757137)" d="M 73.832727 180.411721 
L 74.483338 194.740548 
L 75.133948 198.819469 
L 75.784558 198.893012 
L 76.435169 194.662365 
L 77.085779 189.17218 
L 77.736389 187.800526 
L 78.386999 190.1658 
L 79.03761 189.080562 
L 79.68822 189.898613 
L 80.33883 195.001768 
L 80.989441 188.40186 
L 81.640051 192.32714 
L 82.290661 192.878037 
L 82.941272 189.314514 
L 83.591882 191.506308 
L 84.242492 189.874437 
L 84.893103 190.885141 
L 85.543713 196.193946 
L 86.194323 188.556257 
L 86.844934 194.826372 
L 87.495544 193.281712 
L 88.146154 186.592327 
L 89.447375 189.87595 
L 90.097985 183.479512 
L 90.748595 186.614794 
L 91.399206 190.434653 
L 92.049816 185.747839 
L 92.700426 183.642115 
L 93.351037 185.080591 
L 94.001647 183.122337 
L 94.652257 184.224345 
L 95.302868 191.751733 
L 95.953478 186.662769 
L 96.604088 187.984481 
L 97.254698 186.48062 
L 97.905309 185.564126 
L 98.555919 184.348303 
L 99.206529 188.452975 
L 99.85714 185.411511 
L 100.50775 191.918211 
L 101.15836 188.782507 
L 101.808971 191.820852 
L 102.459581 190.048447 
L 103.110191 195.982116 
L 103.760802 196.071058 
L 104.411412 193.693654 
L 105.062022 199.962069 
L 105.712633 195.440953 
L 106.363243 196.901147 
L 107.013853 196.907954 
L 107.664463 186.908459 
L 108.315074 188.448522 
L 108.965684 187.18206 
L 109.616294 183.587351 
L 110.266905 188.930843 
L 110.917515 191.714875 
L 111.568125 191.90295 
L 112.218736 194.947957 
L 113.519956 188.543454 
L 114.170567 189.815652 
L 114.821177 187.000102 
L 115.471787 196.142577 
L 116.122398 194.092899 
L 116.773008 199.159347 
L 117.423618 196.190518 
L 118.074228 191.07923 
L 118.724839 191.360162 
L 119.375449 192.357708 
L 120.67667 188.748357 
L 121.32728 188.290221 
L 121.97789 190.157046 
L 122.628501 194.862082 
L 123.929721 190.010322 
L 124.580332 185.61514 
L 125.230942 185.295053 
L 125.881552 185.507912 
L 126.532163 193.602181 
L 127.182773 188.36955 
L 127.833383 187.944896 
L 128.483993 201.579148 
L 129.134604 200.570869 
L 129.785214 199.982712 
L 130.435824 202.7061 
L 131.086435 202.403477 
L 132.387655 195.854144 
L 133.038266 191.676869 
L 133.688876 189.975321 
L 134.339486 192.747054 
L 134.990097 191.065976 
L 135.640707 187.862964 
L 136.291317 187.752898 
L 136.941927 188.83934 
L 137.592538 192.826383 
L 138.243148 189.004712 
L 138.893758 184.279231 
L 139.544369 185.952314 
L 140.194979 190.448461 
L 140.845589 188.8062 
L 141.4962 189.641355 
L 142.14681 186.32558 
L 142.79742 192.076415 
L 143.448031 193.73173 
L 144.098641 192.422054 
L 144.749251 191.530746 
L 145.399862 193.231604 
L 146.050472 189.514341 
L 146.701082 195.962435 
L 147.351692 189.895181 
L 148.002303 191.430951 
L 148.652913 189.292368 
L 149.303523 183.64754 
L 149.954134 192.589002 
L 150.604744 193.921615 
L 151.255354 193.570807 
L 151.905965 188.064475 
L 152.556575 187.686987 
L 153.207185 184.702572 
L 153.857796 191.109422 
L 154.508406 187.32753 
L 155.159016 191.233226 
L 155.809627 187.259141 
L 156.460237 184.1758 
L 157.110847 187.422168 
L 157.761457 186.742973 
L 158.412068 180.803141 
L 159.062678 184.188398 
L 159.713288 185.47823 
L 160.363899 183.627551 
L 161.014509 186.479276 
L 161.665119 180.441784 
L 162.31573 183.043001 
L 162.96634 184.608576 
L 163.61695 178.54403 
L 164.267561 182.654777 
L 165.568781 184.798656 
L 166.219392 182.940171 
L 166.870002 184.450297 
L 167.520612 182.077581 
L 168.171222 175.24731 
L 168.821833 176.549183 
L 169.472443 179.142182 
L 170.123053 179.175875 
L 170.773664 175.260138 
L 171.424274 176.24344 
L 172.074884 176.678001 
L 172.725495 176.017021 
L 173.376105 176.349616 
L 174.026715 175.200626 
L 174.677326 175.749025 
L 175.327936 175.344514 
L 175.978546 178.158186 
L 176.629156 183.883996 
L 177.279767 180.063634 
L 177.930377 179.558198 
L 178.580987 176.526371 
L 179.231598 177.621993 
L 179.882208 179.556724 
L 180.532818 173.005936 
L 181.183429 174.621598 
L 181.834039 174.877828 
L 182.484649 179.929006 
L 183.13526 177.213411 
L 183.78587 179.196437 
L 184.43648 177.61874 
L 185.087091 178.962248 
L 185.737701 175.975292 
L 186.388311 175.660856 
L 187.038921 175.694137 
L 187.689532 173.124516 
L 188.340142 179.997005 
L 188.990752 173.09471 
L 189.641363 177.240603 
L 190.291973 175.393445 
L 190.942583 176.033807 
L 191.593194 181.996761 
L 192.243804 174.045583 
L 192.894414 175.455274 
L 193.545025 177.921884 
L 194.195635 174.83939 
L 194.846245 173.156187 
L 195.496856 170.52772 
L 196.147466 171.694019 
L 196.798076 173.343882 
L 197.448686 171.926341 
L 198.099297 171.057421 
L 198.749907 169.42931 
L 199.400517 178.087107 
L 200.051128 176.440163 
L 200.701738 177.386916 
L 201.352348 172.447606 
L 202.002959 179.445417 
L 202.653569 184.394486 
L 203.304179 181.251548 
L 203.95479 182.441783 
L 204.6054 181.593848 
L 205.25601 184.562211 
L 205.906621 189.59487 
L 206.557231 192.958333 
L 207.207841 189.882301 
L 207.858451 189.641795 
L 208.509062 190.730881 
L 209.159672 188.954307 
L 209.810282 186.608317 
L 210.460893 187.156423 
L 211.111503 186.25096 
L 211.762113 188.406365 
L 213.063334 195.745987 
L 213.713944 194.977578 
L 214.364555 196.508606 
L 215.015165 189.09173 
L 215.665775 191.850768 
L 216.316385 189.652457 
L 216.966996 190.431026 
L 217.617606 193.685825 
L 218.268216 189.045302 
L 218.918827 190.346897 
L 219.569437 191.224354 
L 220.220047 185.86615 
L 220.870658 186.668892 
L 221.521268 183.442332 
L 222.171878 183.626092 
L 222.822489 184.049044 
L 223.473099 189.728606 
L 224.123709 184.629035 
L 224.77432 185.952337 
L 225.42493 193.833432 
L 226.07554 188.805178 
L 226.72615 184.904984 
L 227.376761 182.054443 
L 228.027371 181.064322 
L 228.677981 180.711578 
L 229.328592 181.722334 
L 229.979202 180.965438 
L 230.629812 181.591422 
L 231.280423 183.360248 
L 231.931033 183.877989 
L 232.581643 181.299591 
L 233.232254 176.702989 
L 233.882864 178.554892 
L 234.533474 181.840822 
L 235.184085 178.065527 
L 235.834695 178.45229 
L 236.485305 175.962411 
L 237.135915 184.233343 
L 237.786526 175.890454 
L 238.437136 180.987997 
L 239.087746 176.297112 
L 239.738357 177.828507 
L 240.388967 179.03181 
L 241.039577 175.48963 
L 241.690188 183.621472 
L 242.340798 180.656143 
L 242.991408 186.135745 
L 243.642019 185.39326 
L 244.292629 182.005733 
L 244.943239 182.697699 
L 245.59385 180.10038 
L 246.24446 185.393594 
L 246.89507 188.427122 
L 247.54568 195.985118 
L 248.196291 183.795456 
L 248.846901 180.917149 
L 249.497511 180.777345 
L 250.148122 184.496863 
L 250.798732 188.923982 
L 251.449342 188.633786 
L 252.099953 189.399688 
L 252.750563 186.182641 
L 253.401173 186.254278 
L 254.051784 192.976203 
L 254.702394 185.802731 
L 255.353004 194.380228 
L 256.003615 191.09353 
L 256.654225 195.025622 
L 257.304835 188.782256 
L 257.955445 190.750619 
L 258.606056 187.513931 
L 259.256666 187.469183 
L 259.907276 185.94992 
L 260.557887 188.148791 
L 261.208497 183.377351 
L 261.859107 186.547034 
L 262.509718 186.902056 
L 263.160328 190.993507 
L 263.810938 191.314531 
L 264.461549 183.008959 
L 265.112159 183.560208 
L 265.762769 182.726647 
L 266.413379 184.828218 
L 267.06399 178.87526 
L 267.7146 177.706289 
L 268.36521 179.966627 
L 269.015821 183.269076 
L 269.666431 187.828319 
L 270.317041 183.677841 
L 270.967652 181.02927 
L 271.618262 181.032696 
L 272.919483 188.446012 
L 273.570093 184.495467 
L 274.220703 182.427933 
L 274.871314 179.065152 
L 276.172534 181.437576 
L 276.823144 183.645509 
L 277.473755 178.688808 
L 278.124365 176.914979 
L 278.774975 180.332325 
L 279.425586 175.878191 
L 280.076196 181.538337 
L 280.726806 180.247081 
L 281.377417 176.518292 
L 282.028027 177.50888 
L 282.678637 174.507106 
L 283.329248 174.013133 
L 283.979858 175.52217 
L 284.630468 172.584646 
L 285.281079 173.622467 
L 285.931689 181.673331 
L 286.582299 182.106959 
L 287.232909 183.641497 
L 287.88352 175.381721 
L 288.53413 184.068489 
L 289.18474 177.039328 
L 289.835351 177.057721 
L 290.485961 185.610088 
L 291.136571 185.270509 
L 291.787182 187.463998 
L 292.437792 183.995655 
L 293.088402 177.742147 
L 293.739013 181.110492 
L 294.389623 188.417154 
L 295.040233 185.083928 
L 296.341454 175.427664 
L 296.992064 178.140781 
L 297.642674 180.005333 
L 298.293285 175.344737 
L 298.943895 185.956124 
L 299.594505 188.368508 
L 300.245116 188.706746 
L 300.895726 187.074578 
L 301.546336 184.666122 
L 302.196947 194.618283 
L 302.847557 185.810289 
L 303.498167 191.936769 
L 304.148778 184.128941 
L 304.799388 183.866855 
L 305.449998 189.577791 
L 306.100608 186.207225 
L 306.751219 189.024837 
L 307.401829 186.106571 
L 308.052439 188.70287 
L 308.70305 188.935007 
L 309.35366 185.869292 
L 310.00427 183.40926 
L 310.654881 181.94477 
L 311.305491 182.412383 
L 311.956101 178.130307 
L 312.606712 182.905702 
L 313.257322 185.692101 
L 313.907932 185.727413 
L 314.558543 181.871051 
L 315.859763 186.347926 
L 316.510373 191.252263 
L 317.160984 185.943818 
L 317.811594 190.638603 
L 318.462204 187.913155 
L 319.763425 184.428251 
L 320.414035 186.817779 
L 321.064646 192.083688 
L 321.715256 182.617962 
L 322.365866 187.197377 
L 323.016477 188.110597 
L 323.667087 190.341873 
L 324.317697 189.913847 
L 324.968308 189.217304 
L 325.618918 190.344985 
L 326.269528 189.457813 
L 326.920138 191.486487 
L 327.570749 192.779141 
L 328.221359 188.395443 
L 328.871969 191.498878 
L 329.52258 190.551297 
L 330.17319 184.011302 
L 330.8238 190.320412 
L 331.474411 188.286418 
L 332.125021 185.78322 
L 332.775631 185.311373 
L 333.426242 188.207581 
L 334.076852 184.053538 
L 334.727462 182.907937 
L 335.378073 183.47042 
L 336.028683 186.095761 
L 336.679293 180.987637 
L 337.329903 185.022695 
L 337.980514 181.372476 
L 338.631124 184.138901 
L 339.281734 175.212996 
L 339.932345 177.96025 
L 340.582955 177.930997 
L 341.233565 174.589122 
L 341.884176 176.829837 
L 342.534786 181.327172 
L 343.185396 178.411096 
L 343.836007 181.290467 
L 344.486617 177.118464 
L 345.137227 175.516901 
L 345.787837 177.101944 
L 346.438448 176.635286 
L 347.089058 173.778307 
L 347.739668 173.690661 
L 348.390279 177.146259 
L 349.040889 179.035138 
L 349.691499 175.785249 
L 350.34211 173.99316 
L 350.99272 176.235852 
L 351.64333 180.203379 
L 352.293941 174.888935 
L 352.944551 182.064911 
L 353.595161 182.219552 
L 354.896382 178.79091 
L 355.546992 179.287879 
L 356.197602 171.692172 
L 356.848213 175.558708 
L 357.498823 174.683163 
L 358.149433 177.960319 
L 358.800044 178.025633 
L 359.450654 179.50883 
L 360.101264 170.931289 
L 360.751875 177.437181 
L 361.402485 177.499054 
L 362.053095 176.094109 
L 362.703706 181.693855 
L 363.354316 181.406031 
L 364.004926 186.934103 
L 364.655537 179.118634 
L 365.306147 177.306461 
L 365.956757 172.984606 
L 366.607367 178.006442 
L 367.257978 179.834102 
L 367.908588 183.022545 
L 368.559198 182.577012 
L 369.209809 175.996905 
L 369.860419 180.838634 
L 370.511029 182.179444 
L 371.16164 180.555534 
L 371.81225 178.196455 
L 372.46286 176.789546 
L 373.113471 175.93091 
L 373.764081 177.747767 
L 375.065302 180.318894 
L 375.715912 179.161167 
L 376.366522 181.253109 
L 377.017132 184.534347 
L 377.667743 182.617499 
L 378.318353 174.516957 
L 379.619574 182.935256 
L 380.270184 176.167029 
L 380.920794 181.126844 
L 381.571405 176.013226 
L 382.222015 178.678281 
L 382.872625 182.011038 
L 383.523236 176.700176 
L 384.173846 178.474 
L 384.824456 180.720866 
L 385.475066 177.298643 
L 386.125677 176.963023 
L 386.776287 176.864369 
L 387.426897 178.373307 
L 388.077508 176.811881 
L 388.728118 176.105691 
L 389.378728 175.676322 
L 390.029339 178.076631 
L 390.679949 175.868978 
L 391.330559 178.156323 
L 391.98117 179.733059 
L 392.63178 176.747007 
L 393.28239 183.871639 
L 393.933001 179.146942 
L 394.583611 179.530565 
L 395.234221 170.905903 
L 395.884831 174.778303 
L 396.535442 171.75965 
L 397.186052 173.099038 
L 397.836662 176.248056 
L 398.487273 175.356717 
L 398.487273 175.356717 
" style="fill:none;stroke:#008000;stroke-dasharray:9.6,2.4,1.5,2.4;stroke-dashoffset:0;stroke-width:1.5;"/>
   </g>
   <g id="line2d_32">
    <path clip-path="url(#pddd6757137)" d="M 73.832727 53.568 
L 74.483338 106.442724 
L 75.133948 92.859111 
L 75.784558 98.277471 
L 76.435169 116.323306 
L 77.085779 121.394595 
L 77.736389 106.741005 
L 78.386999 101.217948 
L 79.03761 113.244434 
L 79.68822 113.012128 
L 80.33883 103.939636 
L 80.989441 112.47082 
L 81.640051 110.743073 
L 82.290661 96.455977 
L 82.941272 102.566952 
L 83.591882 111.794621 
L 84.242492 115.381506 
L 84.893103 118.12016 
L 85.543713 108.024274 
L 86.194323 115.574489 
L 86.844934 119.685568 
L 87.495544 109.534939 
L 88.146154 113.415706 
L 88.796764 92.417094 
L 89.447375 110.885292 
L 90.097985 96.672294 
L 90.748595 117.659165 
L 91.399206 92.88172 
L 92.049816 110.788778 
L 92.700426 98.599089 
L 93.351037 119.831969 
L 94.001647 82.059941 
L 94.652257 82.896067 
L 95.302868 85.75288 
L 95.953478 111.682753 
L 96.604088 113.391711 
L 97.254698 112.940206 
L 97.905309 102.459804 
L 98.555919 108.057717 
L 99.206529 109.388805 
L 99.85714 107.88134 
L 100.50775 117.487221 
L 101.15836 82.316201 
L 101.808971 103.318662 
L 102.459581 117.820878 
L 103.110191 102.873916 
L 103.760802 108.098787 
L 104.411412 114.912155 
L 105.062022 108.730809 
L 105.712633 99.582345 
L 106.363243 97.530513 
L 107.013853 98.437447 
L 107.664463 90.920083 
L 108.315074 117.296886 
L 108.965684 77.502043 
L 109.616294 101.667424 
L 110.266905 76.700417 
L 110.917515 96.039216 
L 111.568125 100.847647 
L 112.218736 99.351659 
L 112.869346 96.631279 
L 113.519956 92.430957 
L 114.170567 91.870746 
L 114.821177 89.368233 
L 115.471787 95.923784 
L 116.122398 94.429183 
L 116.773008 93.758073 
L 117.423618 101.069823 
L 118.074228 97.620848 
L 118.724839 96.203947 
L 119.375449 97.049112 
L 120.026059 91.535396 
L 120.67667 111.908809 
L 121.32728 104.086916 
L 121.97789 109.426853 
L 122.628501 110.315936 
L 123.279111 111.729495 
L 123.929721 104.900119 
L 124.580332 99.985776 
L 125.230942 107.812797 
L 125.881552 105.267502 
L 126.532163 108.025222 
L 127.182773 105.254446 
L 127.833383 103.120242 
L 128.483993 110.992737 
L 129.134604 121.869114 
L 129.785214 100.470305 
L 130.435824 112.69147 
L 131.086435 106.034683 
L 131.737045 100.772153 
L 132.387655 89.268426 
L 133.038266 105.984526 
L 133.688876 99.308849 
L 134.339486 100.116363 
L 134.990097 93.253199 
L 135.640707 112.06028 
L 136.291317 80.742268 
L 136.941927 99.105466 
L 137.592538 80.761845 
L 138.243148 103.863172 
L 138.893758 87.466768 
L 139.544369 110.60049 
L 140.194979 99.040037 
L 140.845589 109.748331 
L 141.4962 110.266094 
L 142.14681 122.899963 
L 142.79742 124.746627 
L 143.448031 120.747598 
L 144.098641 121.478733 
L 144.749251 121.295906 
L 145.399862 107.755057 
L 146.050472 108.547965 
L 146.701082 116.507687 
L 147.351692 116.703207 
L 148.002303 118.56017 
L 148.652913 103.950778 
L 149.303523 119.58271 
L 149.954134 99.38025 
L 150.604744 111.28275 
L 151.255354 102.503733 
L 151.905965 119.756252 
L 152.556575 121.038392 
L 153.207185 98.153453 
L 153.857796 86.613542 
L 154.508406 119.977544 
L 155.159016 112.559446 
L 155.809627 112.097805 
L 156.460237 108.527032 
L 157.110847 117.656484 
L 157.761457 122.993093 
L 158.412068 118.397841 
L 159.713288 111.028675 
L 160.363899 118.422363 
L 161.014509 95.759727 
L 161.665119 115.672491 
L 162.31573 101.372299 
L 162.96634 118.525567 
L 163.61695 105.211174 
L 164.267561 118.770274 
L 164.918171 106.152853 
L 165.568781 111.528318 
L 166.219392 104.823039 
L 166.870002 124.551863 
L 167.520612 105.519285 
L 168.171222 122.924242 
L 169.472443 111.869381 
L 170.123053 115.703604 
L 170.773664 107.478228 
L 171.424274 119.759703 
L 172.074884 107.777447 
L 172.725495 121.082808 
L 173.376105 107.045337 
L 174.026715 107.635152 
L 174.677326 97.426806 
L 175.327936 103.421576 
L 175.978546 115.543341 
L 176.629156 107.792481 
L 177.279767 122.046825 
L 177.930377 117.138002 
L 178.580987 116.496598 
L 179.231598 100.62506 
L 179.882208 121.102218 
L 180.532818 100.37277 
L 181.183429 101.753027 
L 181.834039 99.459588 
L 182.484649 96.046241 
L 183.13526 106.152743 
L 183.78587 110.646461 
L 184.43648 97.068838 
L 185.087091 103.354579 
L 185.737701 92.166407 
L 186.388311 95.724766 
L 187.038921 107.52502 
L 187.689532 97.126784 
L 188.340142 120.80302 
L 188.990752 104.939685 
L 189.641363 106.023232 
L 190.291973 104.220545 
L 190.942583 75.456183 
L 191.593194 92.113119 
L 192.243804 119.17926 
L 192.894414 100.354731 
L 193.545025 116.055779 
L 194.195635 105.69562 
L 194.846245 92.721338 
L 195.496856 102.009965 
L 196.147466 82.100692 
L 196.798076 110.784843 
L 197.448686 79.482572 
L 198.099297 117.477057 
L 198.749907 87.82924 
L 199.400517 96.19343 
L 200.051128 90.024998 
L 200.701738 89.989399 
L 201.352348 96.819256 
L 202.002959 92.974236 
L 202.653569 76.117966 
L 203.304179 100.917812 
L 203.95479 107.890154 
L 204.6054 66.207392 
L 205.25601 103.189805 
L 205.906621 74.318451 
L 206.557231 118.214126 
L 207.207841 78.909816 
L 207.858451 64.833859 
L 209.159672 112.631233 
L 209.810282 98.888046 
L 210.460893 97.526938 
L 211.111503 92.996317 
L 211.762113 104.616887 
L 212.412724 91.862651 
L 213.063334 97.291229 
L 213.713944 99.288432 
L 214.364555 98.564764 
L 215.015165 95.580165 
L 215.665775 97.852122 
L 216.316385 104.769994 
L 216.966996 105.077845 
L 217.617606 113.115144 
L 218.268216 84.093035 
L 218.918827 109.169682 
L 219.569437 98.346355 
L 220.220047 90.980817 
L 220.870658 99.323161 
L 221.521268 99.217912 
L 222.171878 93.024317 
L 222.822489 76.567769 
L 223.473099 88.71763 
L 224.123709 94.822067 
L 224.77432 96.722131 
L 225.42493 74.674838 
L 226.07554 103.844161 
L 226.72615 90.325019 
L 227.376761 113.610849 
L 228.027371 81.105173 
L 228.677981 100.877615 
L 229.328592 81.500566 
L 229.979202 106.627989 
L 230.629812 89.422407 
L 231.280423 106.244693 
L 231.931033 102.641191 
L 232.581643 109.598809 
L 233.232254 101.421816 
L 233.882864 66.647951 
L 234.533474 95.382348 
L 235.184085 76.717248 
L 235.834695 111.77473 
L 236.485305 93.039135 
L 237.135915 124.793249 
L 237.786526 104.698254 
L 238.437136 118.727292 
L 239.087746 77.716022 
L 241.039577 116.627763 
L 241.690188 87.257492 
L 242.340798 109.491181 
L 242.991408 109.58173 
L 244.943239 88.397073 
L 245.59385 109.044568 
L 246.24446 88.689855 
L 246.89507 104.385747 
L 247.54568 86.0098 
L 248.196291 107.997508 
L 248.846901 78.70439 
L 249.497511 107.374006 
L 250.148122 89.545093 
L 250.798732 111.796904 
L 251.449342 90.299001 
L 252.099953 112.46427 
L 252.750563 109.065624 
L 254.051784 127.922916 
L 254.702394 101.214953 
L 255.353004 117.265841 
L 256.003615 99.756396 
L 256.654225 117.686836 
L 257.304835 96.352592 
L 257.955445 116.854091 
L 258.606056 84.074742 
L 259.256666 105.772429 
L 259.907276 102.779573 
L 260.557887 100.346828 
L 261.208497 91.137946 
L 262.509718 107.8456 
L 263.160328 96.209218 
L 263.810938 117.000164 
L 264.461549 104.220739 
L 265.112159 104.435676 
L 265.762769 74.758048 
L 266.413379 109.277346 
L 267.06399 76.018567 
L 267.7146 84.430201 
L 268.36521 76.739279 
L 269.015821 92.957018 
L 269.666431 77.686961 
L 270.317041 92.855122 
L 270.967652 83.270931 
L 271.618262 99.639541 
L 272.268872 96.695898 
L 272.919483 90.467962 
L 273.570093 103.283612 
L 274.220703 82.146301 
L 274.871314 105.711597 
L 275.521924 83.248276 
L 276.172534 108.006526 
L 276.823144 77.161454 
L 277.473755 99.122752 
L 278.124365 95.370931 
L 278.774975 104.708497 
L 279.425586 78.515818 
L 280.076196 99.379975 
L 280.726806 98.068975 
L 281.377417 93.337062 
L 282.028027 108.002865 
L 282.678637 83.237295 
L 283.329248 84.954131 
L 283.979858 79.584122 
L 284.630468 105.27726 
L 285.281079 80.926003 
L 285.931689 108.799584 
L 286.582299 89.769438 
L 287.232909 115.023642 
L 287.88352 112.334689 
L 288.53413 115.75768 
L 289.18474 108.50957 
L 289.835351 85.253558 
L 290.485961 109.444925 
L 291.136571 82.563863 
L 291.787182 99.229728 
L 292.437792 93.848136 
L 293.088402 106.722005 
L 293.739013 79.380122 
L 294.389623 98.400887 
L 295.040233 86.63013 
L 295.690844 103.715452 
L 296.341454 84.639008 
L 296.992064 99.161298 
L 297.642674 87.474741 
L 298.293285 82.641684 
L 298.943895 103.022854 
L 299.594505 98.539317 
L 300.245116 91.219533 
L 300.895726 92.583299 
L 301.546336 114.87905 
L 302.196947 90.114342 
L 302.847557 105.991809 
L 303.498167 68.972488 
L 304.148778 98.863372 
L 304.799388 89.031087 
L 305.449998 118.034617 
L 306.100608 95.896825 
L 306.751219 116.213961 
L 307.401829 65.326037 
L 308.052439 86.975626 
L 308.70305 103.80092 
L 309.35366 88.451434 
L 310.00427 101.638389 
L 310.654881 74.853823 
L 311.305491 85.837257 
L 311.956101 87.41312 
L 312.606712 108.910209 
L 313.257322 79.043797 
L 313.907932 93.44872 
L 314.558543 78.271957 
L 315.209153 106.859348 
L 315.859763 84.813444 
L 316.510373 106.0192 
L 317.160984 107.127499 
L 317.811594 111.423327 
L 318.462204 111.676465 
L 319.112815 103.42641 
L 319.763425 116.630824 
L 320.414035 92.62894 
L 321.064646 116.143694 
L 321.715256 102.927304 
L 322.365866 84.29176 
L 323.016477 90.452674 
L 323.667087 116.543939 
L 324.317697 88.645232 
L 324.968308 108.944205 
L 325.618918 79.401185 
L 326.269528 99.874021 
L 326.920138 102.626365 
L 327.570749 108.812479 
L 328.871969 100.739649 
L 329.52258 103.67667 
L 330.17319 104.787735 
L 330.8238 110.6658 
L 331.474411 90.976367 
L 332.125021 99.811767 
L 332.775631 82.841798 
L 333.426242 104.018542 
L 334.076852 67.250232 
L 334.727462 90.191233 
L 335.378073 83.932819 
L 336.028683 106.329746 
L 336.679293 87.259289 
L 337.329903 112.099143 
L 337.980514 84.1946 
L 338.631124 104.628961 
L 339.281734 93.541693 
L 339.932345 92.066266 
L 340.582955 69.443851 
L 341.233565 93.914436 
L 341.884176 103.412573 
L 342.534786 90.952386 
L 343.185396 101.351071 
L 343.836007 77.58941 
L 344.486617 99.728756 
L 345.137227 88.646883 
L 345.787837 109.338562 
L 346.438448 77.212854 
L 347.089058 100.3689 
L 347.739668 88.477652 
L 348.390279 110.191584 
L 349.040889 100.480029 
L 349.691499 99.292739 
L 350.34211 104.033925 
L 350.99272 102.636444 
L 351.64333 96.755001 
L 352.293941 76.989368 
L 352.944551 97.934193 
L 353.595161 85.718398 
L 354.245772 107.894672 
L 354.896382 82.74383 
L 355.546992 103.955856 
L 356.197602 90.649471 
L 356.848213 109.664222 
L 357.498823 99.482455 
L 358.149433 86.393001 
L 358.800044 114.326828 
L 359.450654 79.258443 
L 360.101264 98.01831 
L 360.751875 67.293497 
L 361.402485 91.863417 
L 362.053095 92.701694 
L 362.703706 92.926666 
L 363.354316 89.647333 
L 364.004926 107.23395 
L 364.655537 97.772324 
L 365.306147 97.961209 
L 366.607367 94.017338 
L 367.257978 110.679634 
L 367.908588 90.06728 
L 368.559198 112.721417 
L 369.209809 76.465731 
L 369.860419 109.317907 
L 370.511029 84.927103 
L 371.16164 79.165663 
L 371.81225 96.192813 
L 372.46286 116.665375 
L 373.113471 80.554683 
L 373.764081 96.309041 
L 374.414691 93.882467 
L 375.065302 102.829081 
L 375.715912 93.169281 
L 376.366522 73.042173 
L 377.017132 98.002943 
L 377.667743 79.644391 
L 378.318353 99.306973 
L 378.968963 103.492607 
L 379.619574 118.301582 
L 380.270184 95.225113 
L 380.920794 109.006783 
L 381.571405 89.393998 
L 382.222015 102.193533 
L 382.872625 92.95547 
L 383.523236 112.795295 
L 384.173846 98.099423 
L 384.824456 103.26908 
L 386.125677 79.571018 
L 386.776287 100.775372 
L 387.426897 96.617655 
L 388.077508 71.229984 
L 388.728118 95.192738 
L 389.378728 104.020037 
L 390.029339 101.247576 
L 391.330559 105.033505 
L 391.98117 102.335921 
L 392.63178 76.794202 
L 393.28239 99.20335 
L 393.933001 71.769207 
L 394.583611 94.480303 
L 395.234221 74.904974 
L 395.884831 94.430474 
L 396.535442 78.805369 
L 397.186052 99.893076 
L 397.836662 78.386933 
L 398.487273 87.375307 
L 398.487273 87.375307 
" style="fill:none;stroke:#ff0000;stroke-linecap:square;stroke-width:1.5;"/>
   </g>
   <g id="patch_3">
    <path d="M 57.6 307.584 
L 57.6 41.472 
" style="fill:none;stroke:#000000;stroke-linecap:square;stroke-linejoin:miter;stroke-width:0.8;"/>
   </g>
   <g id="patch_4">
    <path d="M 414.72 307.584 
L 414.72 41.472 
" style="fill:none;stroke:#000000;stroke-linecap:square;stroke-linejoin:miter;stroke-width:0.8;"/>
   </g>
   <g id="patch_5">
    <path d="M 57.6 307.584 
L 414.72 307.584 
" style="fill:none;stroke:#000000;stroke-linecap:square;stroke-linejoin:miter;stroke-width:0.8;"/>
   </g>
   <g id="patch_6">
    <path d="M 57.6 41.472 
L 414.72 41.472 
" style="fill:none;stroke:#000000;stroke-linecap:square;stroke-linejoin:miter;stroke-width:0.8;"/>
   </g>
   <g id="text_17">
    <!-- Population's average and best fitness -->
    <defs>
     <path d="M 19.671875 64.796875 
L 19.671875 37.40625 
L 32.078125 37.40625 
Q 38.96875 37.40625 42.71875 40.96875 
Q 46.484375 44.53125 46.484375 51.125 
Q 46.484375 57.671875 42.71875 61.234375 
Q 38.96875 64.796875 32.078125 64.796875 
z
M 9.8125 72.90625 
L 32.078125 72.90625 
Q 44.34375 72.90625 50.609375 67.359375 
Q 56.890625 61.8125 56.890625 51.125 
Q 56.890625 40.328125 50.609375 34.8125 
Q 44.34375 29.296875 32.078125 29.296875 
L 19.671875 29.296875 
L 19.671875 0 
L 9.8125 0 
z
" id="DejaVuSans-80"/>
     <path d="M 18.109375 8.203125 
L 18.109375 -20.796875 
L 9.078125 -20.796875 
L 9.078125 54.6875 
L 18.109375 54.6875 
L 18.109375 46.390625 
Q 20.953125 51.265625 25.265625 53.625 
Q 29.59375 56 35.59375 56 
Q 45.5625 56 51.78125 48.09375 
Q 58.015625 40.1875 58.015625 27.296875 
Q 58.015625 14.40625 51.78125 6.484375 
Q 45.5625 -1.421875 35.59375 -1.421875 
Q 29.59375 -1.421875 25.265625 0.953125 
Q 20.953125 3.328125 18.109375 8.203125 
z
M 48.6875 27.296875 
Q 48.6875 37.203125 44.609375 42.84375 
Q 40.53125 48.484375 33.40625 48.484375 
Q 26.265625 48.484375 22.1875 42.84375 
Q 18.109375 37.203125 18.109375 27.296875 
Q 18.109375 17.390625 22.1875 11.75 
Q 26.265625 6.109375 33.40625 6.109375 
Q 40.53125 6.109375 44.609375 11.75 
Q 48.6875 17.390625 48.6875 27.296875 
z
" id="DejaVuSans-112"/>
     <path d="M 8.5 21.578125 
L 8.5 54.6875 
L 17.484375 54.6875 
L 17.484375 21.921875 
Q 17.484375 14.15625 20.5 10.265625 
Q 23.53125 6.390625 29.59375 6.390625 
Q 36.859375 6.390625 41.078125 11.03125 
Q 45.3125 15.671875 45.3125 23.6875 
L 45.3125 54.6875 
L 54.296875 54.6875 
L 54.296875 0 
L 45.3125 0 
L 45.3125 8.40625 
Q 42.046875 3.421875 37.71875 1 
Q 33.40625 -1.421875 27.6875 -1.421875 
Q 18.265625 -1.421875 13.375 4.4375 
Q 8.5 10.296875 8.5 21.578125 
z
M 31.109375 56 
z
" id="DejaVuSans-117"/>
     <path d="M 9.421875 75.984375 
L 18.40625 75.984375 
L 18.40625 0 
L 9.421875 0 
z
" id="DejaVuSans-108"/>
     <path d="M 17.921875 72.90625 
L 17.921875 45.796875 
L 9.625 45.796875 
L 9.625 72.90625 
z
" id="DejaVuSans-39"/>
     <path id="DejaVuSans-32"/>
     <path d="M 2.984375 54.6875 
L 12.5 54.6875 
L 29.59375 8.796875 
L 46.6875 54.6875 
L 56.203125 54.6875 
L 35.6875 0 
L 23.484375 0 
z
" id="DejaVuSans-118"/>
     <path d="M 45.40625 27.984375 
Q 45.40625 37.75 41.375 43.109375 
Q 37.359375 48.484375 30.078125 48.484375 
Q 22.859375 48.484375 18.828125 43.109375 
Q 14.796875 37.75 14.796875 27.984375 
Q 14.796875 18.265625 18.828125 12.890625 
Q 22.859375 7.515625 30.078125 7.515625 
Q 37.359375 7.515625 41.375 12.890625 
Q 45.40625 18.265625 45.40625 27.984375 
z
M 54.390625 6.78125 
Q 54.390625 -7.171875 48.1875 -13.984375 
Q 42 -20.796875 29.203125 -20.796875 
Q 24.46875 -20.796875 20.265625 -20.09375 
Q 16.0625 -19.390625 12.109375 -17.921875 
L 12.109375 -9.1875 
Q 16.0625 -11.328125 19.921875 -12.34375 
Q 23.78125 -13.375 27.78125 -13.375 
Q 36.625 -13.375 41.015625 -8.765625 
Q 45.40625 -4.15625 45.40625 5.171875 
L 45.40625 9.625 
Q 42.625 4.78125 38.28125 2.390625 
Q 33.9375 0 27.875 0 
Q 17.828125 0 11.671875 7.65625 
Q 5.515625 15.328125 5.515625 27.984375 
Q 5.515625 40.671875 11.671875 48.328125 
Q 17.828125 56 27.875 56 
Q 33.9375 56 38.28125 53.609375 
Q 42.625 51.21875 45.40625 46.390625 
L 45.40625 54.6875 
L 54.390625 54.6875 
z
" id="DejaVuSans-103"/>
     <path d="M 45.40625 46.390625 
L 45.40625 75.984375 
L 54.390625 75.984375 
L 54.390625 0 
L 45.40625 0 
L 45.40625 8.203125 
Q 42.578125 3.328125 38.25 0.953125 
Q 33.9375 -1.421875 27.875 -1.421875 
Q 17.96875 -1.421875 11.734375 6.484375 
Q 5.515625 14.40625 5.515625 27.296875 
Q 5.515625 40.1875 11.734375 48.09375 
Q 17.96875 56 27.875 56 
Q 33.9375 56 38.25 53.625 
Q 42.578125 51.265625 45.40625 46.390625 
z
M 14.796875 27.296875 
Q 14.796875 17.390625 18.875 11.75 
Q 22.953125 6.109375 30.078125 6.109375 
Q 37.203125 6.109375 41.296875 11.75 
Q 45.40625 17.390625 45.40625 27.296875 
Q 45.40625 37.203125 41.296875 42.84375 
Q 37.203125 48.484375 30.078125 48.484375 
Q 22.953125 48.484375 18.875 42.84375 
Q 14.796875 37.203125 14.796875 27.296875 
z
" id="DejaVuSans-100"/>
     <path d="M 48.6875 27.296875 
Q 48.6875 37.203125 44.609375 42.84375 
Q 40.53125 48.484375 33.40625 48.484375 
Q 26.265625 48.484375 22.1875 42.84375 
Q 18.109375 37.203125 18.109375 27.296875 
Q 18.109375 17.390625 22.1875 11.75 
Q 26.265625 6.109375 33.40625 6.109375 
Q 40.53125 6.109375 44.609375 11.75 
Q 48.6875 17.390625 48.6875 27.296875 
z
M 18.109375 46.390625 
Q 20.953125 51.265625 25.265625 53.625 
Q 29.59375 56 35.59375 56 
Q 45.5625 56 51.78125 48.09375 
Q 58.015625 40.1875 58.015625 27.296875 
Q 58.015625 14.40625 51.78125 6.484375 
Q 45.5625 -1.421875 35.59375 -1.421875 
Q 29.59375 -1.421875 25.265625 0.953125 
Q 20.953125 3.328125 18.109375 8.203125 
L 18.109375 0 
L 9.078125 0 
L 9.078125 75.984375 
L 18.109375 75.984375 
z
" id="DejaVuSans-98"/>
     <path d="M 37.109375 75.984375 
L 37.109375 68.5 
L 28.515625 68.5 
Q 23.6875 68.5 21.796875 66.546875 
Q 19.921875 64.59375 19.921875 59.515625 
L 19.921875 54.6875 
L 34.71875 54.6875 
L 34.71875 47.703125 
L 19.921875 47.703125 
L 19.921875 0 
L 10.890625 0 
L 10.890625 47.703125 
L 2.296875 47.703125 
L 2.296875 54.6875 
L 10.890625 54.6875 
L 10.890625 58.5 
Q 10.890625 67.625 15.140625 71.796875 
Q 19.390625 75.984375 28.609375 75.984375 
z
" id="DejaVuSans-102"/>
    </defs>
    <g transform="translate(123.315 35.472)scale(0.12 -0.12)">
     <use xlink:href="#DejaVuSans-80"/>
     <use x="60.255859" xlink:href="#DejaVuSans-111"/>
     <use x="121.4375" xlink:href="#DejaVuSans-112"/>
     <use x="184.914062" xlink:href="#DejaVuSans-117"/>
     <use x="248.292969" xlink:href="#DejaVuSans-108"/>
     <use x="276.076172" xlink:href="#DejaVuSans-97"/>
     <use x="337.355469" xlink:href="#DejaVuSans-116"/>
     <use x="376.564453" xlink:href="#DejaVuSans-105"/>
     <use x="404.347656" xlink:href="#DejaVuSans-111"/>
     <use x="465.529297" xlink:href="#DejaVuSans-110"/>
     <use x="528.908203" xlink:href="#DejaVuSans-39"/>
     <use x="556.398438" xlink:href="#DejaVuSans-115"/>
     <use x="608.498047" xlink:href="#DejaVuSans-32"/>
     <use x="640.285156" xlink:href="#DejaVuSans-97"/>
     <use x="701.564453" xlink:href="#DejaVuSans-118"/>
     <use x="760.744141" xlink:href="#DejaVuSans-101"/>
     <use x="822.267578" xlink:href="#DejaVuSans-114"/>
     <use x="863.380859" xlink:href="#DejaVuSans-97"/>
     <use x="924.660156" xlink:href="#DejaVuSans-103"/>
     <use x="988.136719" xlink:href="#DejaVuSans-101"/>
     <use x="1049.660156" xlink:href="#DejaVuSans-32"/>
     <use x="1081.447266" xlink:href="#DejaVuSans-97"/>
     <use x="1142.726562" xlink:href="#DejaVuSans-110"/>
     <use x="1206.105469" xlink:href="#DejaVuSans-100"/>
     <use x="1269.582031" xlink:href="#DejaVuSans-32"/>
     <use x="1301.369141" xlink:href="#DejaVuSans-98"/>
     <use x="1364.845703" xlink:href="#DejaVuSans-101"/>
     <use x="1426.369141" xlink:href="#DejaVuSans-115"/>
     <use x="1478.46875" xlink:href="#DejaVuSans-116"/>
     <use x="1517.677734" xlink:href="#DejaVuSans-32"/>
     <use x="1549.464844" xlink:href="#DejaVuSans-102"/>
     <use x="1584.669922" xlink:href="#DejaVuSans-105"/>
     <use x="1612.453125" xlink:href="#DejaVuSans-116"/>
     <use x="1651.662109" xlink:href="#DejaVuSans-110"/>
     <use x="1715.041016" xlink:href="#DejaVuSans-101"/>
     <use x="1776.564453" xlink:href="#DejaVuSans-115"/>
     <use x="1828.664062" xlink:href="#DejaVuSans-115"/>
    </g>
   </g>
   <g id="legend_1">
    <g id="patch_7">
     <path d="M 64.6 108.1845 
L 137.540625 108.1845 
Q 139.540625 108.1845 139.540625 106.1845 
L 139.540625 48.472 
Q 139.540625 46.472 137.540625 46.472 
L 64.6 46.472 
Q 62.6 46.472 62.6 48.472 
L 62.6 106.1845 
Q 62.6 108.1845 64.6 108.1845 
z
" style="fill:#ffffff;opacity:0.8;stroke:#cccccc;stroke-linejoin:miter;"/>
    </g>
    <g id="line2d_33">
     <path d="M 66.6 54.570438 
L 86.6 54.570438 
" style="fill:none;stroke:#0000ff;stroke-linecap:square;stroke-width:1.5;"/>
    </g>
    <g id="line2d_34"/>
    <g id="text_18">
     <!-- average -->
     <g transform="translate(94.6 58.070438)scale(0.1 -0.1)">
      <use xlink:href="#DejaVuSans-97"/>
      <use x="61.279297" xlink:href="#DejaVuSans-118"/>
      <use x="120.458984" xlink:href="#DejaVuSans-101"/>
      <use x="181.982422" xlink:href="#DejaVuSans-114"/>
      <use x="223.095703" xlink:href="#DejaVuSans-97"/>
      <use x="284.375" xlink:href="#DejaVuSans-103"/>
      <use x="347.851562" xlink:href="#DejaVuSans-101"/>
     </g>
    </g>
    <g id="line2d_35">
     <path d="M 66.6 69.248563 
L 86.6 69.248563 
" style="fill:none;stroke:#008000;stroke-dasharray:9.6,2.4,1.5,2.4;stroke-dashoffset:0;stroke-width:1.5;"/>
    </g>
    <g id="line2d_36"/>
    <g id="text_19">
     <!-- -1 sd -->
     <defs>
      <path d="M 4.890625 31.390625 
L 31.203125 31.390625 
L 31.203125 23.390625 
L 4.890625 23.390625 
z
" id="DejaVuSans-45"/>
     </defs>
     <g transform="translate(94.6 72.748563)scale(0.1 -0.1)">
      <use xlink:href="#DejaVuSans-45"/>
      <use x="36.083984" xlink:href="#DejaVuSans-49"/>
      <use x="99.707031" xlink:href="#DejaVuSans-32"/>
      <use x="131.494141" xlink:href="#DejaVuSans-115"/>
      <use x="183.59375" xlink:href="#DejaVuSans-100"/>
     </g>
    </g>
    <g id="line2d_37">
     <path d="M 66.6 83.926688 
L 86.6 83.926688 
" style="fill:none;stroke:#008000;stroke-dasharray:9.6,2.4,1.5,2.4;stroke-dashoffset:0;stroke-width:1.5;"/>
    </g>
    <g id="line2d_38"/>
    <g id="text_20">
     <!-- +1 sd -->
     <defs>
      <path d="M 46 62.703125 
L 46 35.5 
L 73.1875 35.5 
L 73.1875 27.203125 
L 46 27.203125 
L 46 0 
L 37.796875 0 
L 37.796875 27.203125 
L 10.59375 27.203125 
L 10.59375 35.5 
L 37.796875 35.5 
L 37.796875 62.703125 
z
" id="DejaVuSans-43"/>
     </defs>
     <g transform="translate(94.6 87.426688)scale(0.1 -0.1)">
      <use xlink:href="#DejaVuSans-43"/>
      <use x="83.789062" xlink:href="#DejaVuSans-49"/>
      <use x="147.412109" xlink:href="#DejaVuSans-32"/>
      <use x="179.199219" xlink:href="#DejaVuSans-115"/>
      <use x="231.298828" xlink:href="#DejaVuSans-100"/>
     </g>
    </g>
    <g id="line2d_39">
     <path d="M 66.6 98.604813 
L 86.6 98.604813 
" style="fill:none;stroke:#ff0000;stroke-linecap:square;stroke-width:1.5;"/>
    </g>
    <g id="line2d_40"/>
    <g id="text_21">
     <!-- best -->
     <g transform="translate(94.6 102.104813)scale(0.1 -0.1)">
      <use xlink:href="#DejaVuSans-98"/>
      <use x="63.476562" xlink:href="#DejaVuSans-101"/>
      <use x="125" xlink:href="#DejaVuSans-115"/>
      <use x="177.099609" xlink:href="#DejaVuSans-116"/>
     </g>
    </g>
   </g>
  </g>
 </g>
 <defs>
  <clipPath id="pddd6757137">
   <rect height="266.112" width="357.12" x="57.6" y="41.472"/>
  </clipPath>
 </defs>
</svg>
