<?xml version="1.0" encoding="UTF-8" standalone="no"?>
<!DOCTYPE svg PUBLIC "-//W3C//DTD SVG 1.1//EN"
 "http://www.w3.org/Graphics/SVG/1.1/DTD/svg11.dtd">
<!-- Generated by graphviz version 2.50.0 (0)
 -->
<!-- Pages: 1 -->
<svg width="572pt" height="561pt"
 viewBox="0.00 0.00 572.37 561.35" xmlns="http://www.w3.org/2000/svg" xmlns:xlink="http://www.w3.org/1999/xlink">
<g id="graph0" class="graph" transform="scale(1 1) rotate(0) translate(4 557.35)">
<polygon fill="white" stroke="transparent" points="-4,4 -4,-557.35 568.37,-557.35 568.37,4 -4,4"/>
<!-- offx1 -->
<g id="node1" class="node">
<title>offx1</title>
<polygon fill="lightgray" stroke="black" points="39.79,-443.62 3.79,-443.62 3.79,-425.62 39.79,-425.62 39.79,-443.62"/>
<text text-anchor="middle" x="21.79" y="-432.42" font-family="Times New Roman,serif" font-size="9.00">offx1</text>
</g>
<!-- Move_outputp -->
<g id="node5" class="node">
<title>Move_outputp</title>
<ellipse fill="lightblue" stroke="black" cx="48.79" cy="-322.25" rx="48.58" ry="48.58"/>
<text text-anchor="middle" x="48.79" y="-320.05" font-family="Times New Roman,serif" font-size="9.00">Move_outputp</text>
</g>
<!-- offx1&#45;&gt;Move_outputp -->
<g id="edge18" class="edge">
<title>offx1&#45;&gt;Move_outputp</title>
<path fill="none" stroke="green" stroke-width="0.2" d="M23.82,-425.33C26.26,-415.34 30.58,-397.69 34.95,-379.83"/>
<polygon fill="green" stroke="green" stroke-width="0.2" points="38.39,-380.49 37.37,-369.94 31.59,-378.83 38.39,-380.49"/>
</g>
<!-- offy1 -->
<g id="node2" class="node">
<title>offy1</title>
<polygon fill="lightgray" stroke="black" points="93.79,-443.62 57.79,-443.62 57.79,-425.62 93.79,-425.62 93.79,-443.62"/>
<text text-anchor="middle" x="75.79" y="-432.42" font-family="Times New Roman,serif" font-size="9.00">offy1</text>
</g>
<!-- offy1&#45;&gt;Move_outputp -->
<g id="edge14" class="edge">
<title>offy1&#45;&gt;Move_outputp</title>
<path fill="none" stroke="green" stroke-width="0.19" d="M73.76,-425.33C71.32,-415.34 67,-397.69 62.63,-379.83"/>
<polygon fill="green" stroke="green" stroke-width="0.19" points="65.99,-378.83 60.21,-369.94 59.19,-380.49 65.99,-378.83"/>
</g>
<!-- signal1 -->
<g id="node3" class="node">
<title>signal1</title>
<polygon fill="lightgray" stroke="black" points="230.79,-443.62 188.79,-443.62 188.79,-425.62 230.79,-425.62 230.79,-443.62"/>
<text text-anchor="middle" x="209.79" y="-432.42" font-family="Times New Roman,serif" font-size="9.00">signal1</text>
</g>
<!-- signal1&#45;&gt;Move_outputp -->
<g id="edge7" class="edge">
<title>signal1&#45;&gt;Move_outputp</title>
<path fill="none" stroke="red" stroke-width="0.47" d="M196.25,-425.45C177.13,-413.82 141.27,-391.59 111.79,-371.04 106.34,-367.25 100.7,-363.18 95.14,-359.08"/>
<polygon fill="red" stroke="red" stroke-width="0.47" points="97.19,-356.24 87.08,-353.07 93.01,-361.85 97.19,-356.24"/>
</g>
<!-- Signal -->
<g id="node6" class="node">
<title>Signal</title>
<ellipse fill="lightblue" stroke="black" cx="366.79" cy="-322.25" rx="27.65" ry="27.65"/>
<text text-anchor="middle" x="366.79" y="-320.05" font-family="Times New Roman,serif" font-size="9.00">Signal</text>
</g>
<!-- signal1&#45;&gt;Signal -->
<g id="edge9" class="edge">
<title>signal1&#45;&gt;Signal</title>
<path fill="none" stroke="red" stroke-width="1.26" d="M231.18,-425.96C256.79,-416.07 300.07,-396.98 330.79,-371.04 336.47,-366.25 341.78,-360.41 346.49,-354.48"/>
<polygon fill="red" stroke="red" stroke-width="1.26" points="349.33,-356.52 352.52,-346.42 343.72,-352.33 349.33,-356.52"/>
</g>
<!-- 13933 -->
<g id="node12" class="node">
<title>13933</title>
<ellipse fill="white" stroke="black" cx="125.79" cy="-209.89" rx="27.65" ry="27.65"/>
<text text-anchor="middle" x="125.79" y="-207.69" font-family="Times New Roman,serif" font-size="9.00">13933</text>
</g>
<!-- signal1&#45;&gt;13933 -->
<g id="edge12" class="edge">
<title>signal1&#45;&gt;13933</title>
<path fill="none" stroke="red" stroke-width="0.23" stroke-dasharray="1,5" d="M196.99,-425.44C181.71,-414.89 156.71,-395.03 144.79,-371.04 125.51,-332.24 122.59,-281.83 123.31,-248.02"/>
<polygon fill="red" stroke="red" stroke-width="0.23" points="126.82,-247.77 123.65,-237.66 119.82,-247.54 126.82,-247.77"/>
</g>
<!-- 28949 -->
<g id="node14" class="node">
<title>28949</title>
<ellipse fill="white" stroke="black" cx="265.79" cy="-209.89" rx="27.65" ry="27.65"/>
<text text-anchor="middle" x="265.79" y="-207.69" font-family="Times New Roman,serif" font-size="9.00">28949</text>
</g>
<!-- signal1&#45;&gt;28949 -->
<g id="edge6" class="edge">
<title>signal1&#45;&gt;28949</title>
<path fill="none" stroke="green" stroke-width="0.28" stroke-dasharray="1,5" d="M211.85,-425.43C219.06,-396.75 243.46,-299.71 256.83,-246.51"/>
<polygon fill="green" stroke="green" stroke-width="0.28" points="260.23,-247.35 259.28,-236.8 253.44,-245.64 260.23,-247.35"/>
</g>
<!-- 39607 -->
<g id="node15" class="node">
<title>39607</title>
<ellipse fill="white" stroke="black" cx="293.79" cy="-322.25" rx="27.65" ry="27.65"/>
<text text-anchor="middle" x="293.79" y="-320.05" font-family="Times New Roman,serif" font-size="9.00">39607</text>
</g>
<!-- signal1&#45;&gt;39607 -->
<g id="edge17" class="edge">
<title>signal1&#45;&gt;39607</title>
<path fill="none" stroke="green" stroke-width="0.49" d="M216.1,-425.33C227.64,-410.17 252.64,-377.32 271.18,-352.96"/>
<polygon fill="green" stroke="green" stroke-width="0.49" points="274.17,-354.81 277.44,-344.74 268.6,-350.57 274.17,-354.81"/>
</g>
<!-- 40283 -->
<g id="node16" class="node">
<title>40283</title>
<ellipse fill="white" stroke="black" cx="181.79" cy="-322.25" rx="27.65" ry="27.65"/>
<text text-anchor="middle" x="181.79" y="-320.05" font-family="Times New Roman,serif" font-size="9.00">40283</text>
</g>
<!-- signal1&#45;&gt;40283 -->
<g id="edge16" class="edge">
<title>signal1&#45;&gt;40283</title>
<path fill="none" stroke="green" stroke-width="0.15" d="M207.69,-425.33C204.16,-411.44 196.87,-382.7 190.92,-359.25"/>
<polygon fill="green" stroke="green" stroke-width="0.15" points="194.24,-358.08 188.38,-349.25 187.45,-359.8 194.24,-358.08"/>
</g>
<!-- signal2 -->
<g id="node4" class="node">
<title>signal2</title>
<polygon fill="lightgray" stroke="black" points="490.79,-534.78 448.79,-534.78 448.79,-516.78 490.79,-516.78 490.79,-534.78"/>
<text text-anchor="middle" x="469.79" y="-523.58" font-family="Times New Roman,serif" font-size="9.00">signal2</text>
</g>
<!-- 32621 -->
<g id="node9" class="node">
<title>32621</title>
<ellipse fill="white" stroke="black" cx="104.79" cy="-27.58" rx="27.65" ry="27.65"/>
<text text-anchor="middle" x="104.79" y="-25.38" font-family="Times New Roman,serif" font-size="9.00">32621</text>
</g>
<!-- Move_outputp&#45;&gt;32621 -->
<g id="edge5" class="edge">
<title>Move_outputp&#45;&gt;32621</title>
<path fill="none" stroke="green" stroke-width="0.32" d="M46.58,-273.34C45.81,-225.94 48.46,-151.88 67.79,-91.15 71.34,-80.01 77.16,-68.74 83.15,-58.89"/>
<polygon fill="green" stroke="green" stroke-width="0.32" points="86.21,-60.6 88.64,-50.29 80.31,-56.84 86.21,-60.6"/>
</g>
<!-- Move_outputp&#45;&gt;13933 -->
<g id="edge4" class="edge">
<title>Move_outputp&#45;&gt;13933</title>
<path fill="none" stroke="red" stroke-width="0.19" stroke-dasharray="1,5" d="M76.37,-281.72C85.7,-268.35 95.96,-253.65 104.7,-241.12"/>
<polygon fill="red" stroke="red" stroke-width="0.19" points="107.63,-243.04 110.48,-232.83 101.89,-239.03 107.63,-243.04"/>
</g>
<!-- 27656 -->
<g id="node7" class="node">
<title>27656</title>
<ellipse fill="white" stroke="black" cx="402.79" cy="-525.78" rx="27.65" ry="27.65"/>
<text text-anchor="middle" x="402.79" y="-523.58" font-family="Times New Roman,serif" font-size="9.00">27656</text>
</g>
<!-- 12558 -->
<g id="node11" class="node">
<title>12558</title>
<ellipse fill="white" stroke="black" cx="402.79" cy="-434.62" rx="27.65" ry="27.65"/>
<text text-anchor="middle" x="402.79" y="-432.42" font-family="Times New Roman,serif" font-size="9.00">12558</text>
</g>
<!-- 27656&#45;&gt;12558 -->
<g id="edge3" class="edge">
<title>27656&#45;&gt;12558</title>
<path fill="none" stroke="green" stroke-width="0.43" stroke-dasharray="1,5" d="M402.79,-498.03C402.79,-490 402.79,-481.06 402.79,-472.5"/>
<polygon fill="green" stroke="green" stroke-width="0.43" points="406.29,-472.35 402.79,-462.35 399.29,-472.35 406.29,-472.35"/>
</g>
<!-- 38697 -->
<g id="node8" class="node">
<title>38697</title>
<ellipse fill="white" stroke="black" cx="104.79" cy="-118.73" rx="27.65" ry="27.65"/>
<text text-anchor="middle" x="104.79" y="-116.53" font-family="Times New Roman,serif" font-size="9.00">38697</text>
</g>
<!-- 38697&#45;&gt;32621 -->
<g id="edge1" class="edge">
<title>38697&#45;&gt;32621</title>
<path fill="none" stroke="red" stroke-width="0.37" d="M104.79,-90.98C104.79,-82.96 104.79,-74.02 104.79,-65.46"/>
<polygon fill="red" stroke="red" stroke-width="0.37" points="108.29,-65.31 104.79,-55.31 101.29,-65.31 108.29,-65.31"/>
</g>
<!-- 33646 -->
<g id="node10" class="node">
<title>33646</title>
<ellipse fill="white" stroke="black" cx="439.79" cy="-322.25" rx="27.65" ry="27.65"/>
<text text-anchor="middle" x="439.79" y="-320.05" font-family="Times New Roman,serif" font-size="9.00">33646</text>
</g>
<!-- 12558&#45;&gt;Signal -->
<g id="edge10" class="edge">
<title>12558&#45;&gt;Signal</title>
<path fill="none" stroke="red" stroke-width="0.33" stroke-dasharray="1,5" d="M394.53,-408.3C389.72,-393.54 383.57,-374.71 378.29,-358.52"/>
<polygon fill="red" stroke="red" stroke-width="0.33" points="381.56,-357.26 375.14,-348.84 374.91,-359.43 381.56,-357.26"/>
</g>
<!-- 12558&#45;&gt;33646 -->
<g id="edge13" class="edge">
<title>12558&#45;&gt;33646</title>
<path fill="none" stroke="green" stroke-width="0.26" d="M411.28,-408.3C416.23,-393.54 422.54,-374.71 427.97,-358.52"/>
<polygon fill="green" stroke="green" stroke-width="0.26" points="431.35,-359.43 431.21,-348.84 424.72,-357.21 431.35,-359.43"/>
</g>
<!-- 13933&#45;&gt;38697 -->
<g id="edge15" class="edge">
<title>13933&#45;&gt;38697</title>
<path fill="none" stroke="green" stroke-width="0.13" d="M119.6,-182.62C117.62,-174.18 115.38,-164.69 113.26,-155.69"/>
<polygon fill="green" stroke="green" stroke-width="0.13" points="116.63,-154.74 110.93,-145.81 109.82,-156.35 116.63,-154.74"/>
</g>
<!-- 13933&#45;&gt;32621 -->
<g id="edge2" class="edge">
<title>13933&#45;&gt;32621</title>
<path fill="none" stroke="green" stroke-width="0.45" d="M134.95,-183.7C142.38,-159.6 150.33,-122.39 141.79,-91.15 138.68,-79.78 132.91,-68.38 126.84,-58.48"/>
<polygon fill="green" stroke="green" stroke-width="0.45" points="129.63,-56.34 121.25,-49.86 123.76,-60.15 129.63,-56.34"/>
</g>
<!-- 36722 -->
<g id="node13" class="node">
<title>36722</title>
<ellipse fill="white" stroke="black" cx="536.79" cy="-525.78" rx="27.65" ry="27.65"/>
<text text-anchor="middle" x="536.79" y="-523.58" font-family="Times New Roman,serif" font-size="9.00">36722</text>
</g>
<!-- 39607&#45;&gt;28949 -->
<g id="edge11" class="edge">
<title>39607&#45;&gt;28949</title>
<path fill="none" stroke="green" stroke-width="0.18" d="M287.23,-295.38C283.57,-280.95 278.95,-262.76 274.94,-246.96"/>
<polygon fill="green" stroke="green" stroke-width="0.18" points="278.26,-245.81 272.41,-236.98 271.48,-247.54 278.26,-245.81"/>
</g>
<!-- 40283&#45;&gt;13933 -->
<g id="edge8" class="edge">
<title>40283&#45;&gt;13933</title>
<path fill="none" stroke="red" stroke-width="0.11" d="M169.64,-297.31C161.71,-281.69 151.26,-261.09 142.55,-243.92"/>
<polygon fill="red" stroke="red" stroke-width="0.11" points="145.56,-242.12 137.92,-234.79 139.32,-245.29 145.56,-242.12"/>
</g>
</g>
</svg>
