<?xml version="1.0" encoding="UTF-8" standalone="no"?>
<!DOCTYPE svg PUBLIC "-//W3C//DTD SVG 1.1//EN"
 "http://www.w3.org/Graphics/SVG/1.1/DTD/svg11.dtd">
<!-- Generated by graphviz version 2.50.0 (0)
 -->
<!-- Pages: 1 -->
<svg width="208pt" height="157pt"
 viewBox="0.00 0.00 208.22 156.75" xmlns="http://www.w3.org/2000/svg" xmlns:xlink="http://www.w3.org/1999/xlink">
<g id="graph0" class="graph" transform="scale(1 1) rotate(0) translate(4 152.75)">
<polygon fill="white" stroke="transparent" points="-4,4 -4,-152.75 204.22,-152.75 204.22,4 -4,4"/>
<!-- distanceToPrey1 -->
<g id="node1" class="node">
<title>distanceToPrey1</title>
<polygon fill="lightgray" stroke="black" points="179.34,-148.75 104.34,-148.75 104.34,-130.75 179.34,-130.75 179.34,-148.75"/>
<text text-anchor="middle" x="141.84" y="-137.55" font-family="Times New Roman,serif" font-size="9.00">distanceToPrey1</text>
</g>
<!-- Move output -->
<g id="node3" class="node">
<title>Move output</title>
<ellipse fill="lightblue" stroke="black" cx="43.84" cy="-47.38" rx="43.68" ry="43.68"/>
<text text-anchor="middle" x="43.84" y="-45.18" font-family="Times New Roman,serif" font-size="9.00">Move output</text>
</g>
<!-- distanceToPrey1&#45;&gt;Move output -->
<g id="edge3" class="edge">
<title>distanceToPrey1&#45;&gt;Move output</title>
<path fill="none" stroke="green" stroke-width="0.51" d="M133.14,-130.73C121.99,-120.45 101.91,-101.93 83.61,-85.06"/>
<polygon fill="green" stroke="green" stroke-width="0.51" points="85.64,-82.16 75.91,-77.95 80.89,-87.31 85.64,-82.16"/>
</g>
<!-- signal1 output -->
<g id="node4" class="node">
<title>signal1 output</title>
<ellipse fill="lightblue" stroke="black" cx="152.84" cy="-47.38" rx="47.25" ry="47.25"/>
<text text-anchor="middle" x="152.84" y="-45.18" font-family="Times New Roman,serif" font-size="9.00">signal1 output</text>
</g>
<!-- distanceToPrey1&#45;&gt;signal1 output -->
<g id="edge1" class="edge">
<title>distanceToPrey1&#45;&gt;signal1 output</title>
<path fill="none" stroke="red" stroke-width="0.36" d="M142.82,-130.73C143.59,-124.38 144.75,-114.89 146,-104.58"/>
<polygon fill="red" stroke="red" stroke-width="0.36" points="149.49,-104.87 147.22,-94.52 142.54,-104.03 149.49,-104.87"/>
</g>
<!-- signal2 input -->
<g id="node2" class="node">
<title>signal2 input</title>
<polygon fill="lightgray" stroke="black" points="74.84,-148.75 12.84,-148.75 12.84,-130.75 74.84,-130.75 74.84,-148.75"/>
<text text-anchor="middle" x="43.84" y="-137.55" font-family="Times New Roman,serif" font-size="9.00">signal2 input</text>
</g>
<!-- signal2 input&#45;&gt;Move output -->
<g id="edge2" class="edge">
<title>signal2 input&#45;&gt;Move output</title>
<path fill="none" stroke="green" stroke-width="0.31" d="M43.84,-130.73C43.84,-123.78 43.84,-113.07 43.84,-101.64"/>
<polygon fill="green" stroke="green" stroke-width="0.31" points="47.34,-101.5 43.84,-91.5 40.34,-101.5 47.34,-101.5"/>
</g>
</g>
</svg>
